<svg width="112" height="82" viewBox="0 0 112 82" fill="none" xmlns="http://www.w3.org/2000/svg">
<g filter="url(#filter0_d)">
<circle r="6.10071" transform="matrix(0.89305 -0.449957 -0.449957 -0.89305 53.0192 58.9538)" fill="#9D9D9D"/>
<circle r="2.97214" transform="matrix(0.89305 -0.449957 -0.449957 -0.89305 47.7063 60.2293)" fill="#9D9D9D"/>
<circle r="7.665" transform="matrix(0.89305 -0.449957 -0.449957 -0.89305 57.3424 54.3233)" fill="#9D9D9D"/>
<circle r="6.10071" transform="matrix(0.89305 -0.449957 -0.449957 -0.89305 66.1465 50.9383)" fill="#9D9D9D"/>
<circle r="4.53643" transform="matrix(0.89305 -0.449957 -0.449957 -0.89305 64.0672 57.2409)" fill="#9D9D9D"/>
<circle r="6.10071" transform="matrix(0.89305 -0.449957 -0.449957 -0.89305 59.7226 54.8757)" fill="#9D9D9D"/>
<circle r="6.10071" transform="matrix(0.89305 -0.449957 -0.449957 -0.89305 58.1977 59.4976)" fill="#9D9D9D"/>
<circle cx="57.6774" cy="53.5979" r="7.93929" transform="rotate(153.259 57.6774 53.5979)" fill="#D1D1D1"/>
<circle cx="63.1259" cy="49.0291" r="3.86786" transform="rotate(153.259 63.1259 49.0291)" fill="#D1D1D1"/>
<circle cx="49.4867" cy="54.5334" r="9.975" transform="rotate(153.259 49.4867 54.5334)" fill="#D1D1D1"/>
<circle cx="39.1284" cy="61.1201" r="7.93929" transform="rotate(153.259 39.1284 61.1201)" fill="#D1D1D1"/>
<circle cx="47.3302" cy="63.8262" r="5.90357" transform="rotate(153.259 47.3302 63.8262)" fill="#D1D1D1"/>
<circle cx="48.221" cy="57.4505" r="7.93929" transform="rotate(153.259 48.221 57.4505)" fill="#D1D1D1"/>
<circle cx="54.2358" cy="59.435" r="7.93929" transform="rotate(153.259 54.2358 59.435)" fill="#D1D1D1"/>
</g>
<g filter="url(#filter1_d)">
<circle r="6.10071" transform="matrix(-0.908639 0.417583 0.417583 0.908639 41.1962 47.4624)" fill="#9D9D9D"/>
<circle r="2.97214" transform="matrix(-0.908639 0.417583 0.417583 0.908639 46.5514 46.3785)" fill="#9D9D9D"/>
<circle r="7.665" transform="matrix(-0.908639 0.417583 0.417583 0.908639 36.7094 51.9345)" fill="#9D9D9D"/>
<circle r="6.10071" transform="matrix(-0.908639 0.417583 0.417583 0.908639 27.7894 55.0009)" fill="#9D9D9D"/>
<circle r="4.53643" transform="matrix(-0.908639 0.417583 0.417583 0.908639 30.0938 48.7772)" fill="#9D9D9D"/>
<circle r="6.10071" transform="matrix(-0.908639 0.417583 0.417583 0.908639 34.3506 51.297)" fill="#9D9D9D"/>
<circle r="6.10071" transform="matrix(-0.908639 0.417583 0.417583 0.908639 36.0406 46.7329)" fill="#9D9D9D"/>
<circle cx="36.3485" cy="52.6474" r="7.93929" transform="rotate(-24.6821 36.3485 52.6474)" fill="#D1D1D1"/>
<circle cx="30.7395" cy="57.0175" r="3.86786" transform="rotate(-24.6821 30.7395 57.0175)" fill="#D1D1D1"/>
<circle cx="44.5676" cy="52.0068" r="9.975" transform="rotate(-24.6821 44.5676 52.0068)" fill="#D1D1D1"/>
<circle cx="55.1558" cy="45.7965" r="7.93929" transform="rotate(-24.6821 55.1558 45.7965)" fill="#D1D1D1"/>
<circle cx="47.0565" cy="42.7974" r="5.90357" transform="rotate(-24.6821 47.0565 42.7974)" fill="#D1D1D1"/>
<circle cx="45.9372" cy="49.1369" r="7.93929" transform="rotate(-24.6821 45.9372 49.1369)" fill="#D1D1D1"/>
<circle cx="39.9976" cy="46.9377" r="7.93929" transform="rotate(-24.6821 39.9976 46.9377)" fill="#D1D1D1"/>
</g>
<g filter="url(#filter2_d)">
<circle r="4.1196" transform="matrix(-0.908639 0.417583 0.417583 0.908639 18.6634 60.9401)" fill="#9D9D9D"/>
<circle r="2.00698" transform="matrix(-0.908639 0.417583 0.417583 0.908639 22.2797 60.2082)" fill="#9D9D9D"/>
<circle r="5.1759" transform="matrix(-0.908639 0.417583 0.417583 0.908639 15.6338 63.96)" fill="#9D9D9D"/>
<circle r="4.1196" transform="matrix(-0.908639 0.417583 0.417583 0.908639 9.61035 66.0306)" fill="#9D9D9D"/>
<circle r="3.06329" transform="matrix(-0.908639 0.417583 0.417583 0.908639 11.1664 61.8279)" fill="#9D9D9D"/>
<circle r="4.1196" transform="matrix(-0.908639 0.417583 0.417583 0.908639 14.0409 63.5294)" fill="#9D9D9D"/>
<circle r="4.1196" transform="matrix(-0.908639 0.417583 0.417583 0.908639 15.1821 60.4475)" fill="#9D9D9D"/>
<circle cx="15.3901" cy="64.4413" r="5.36112" transform="rotate(-24.6821 15.3901 64.4413)" fill="#D1D1D1"/>
<circle cx="11.6024" cy="67.3923" r="2.61183" transform="rotate(-24.6821 11.6024 67.3923)" fill="#D1D1D1"/>
<circle cx="20.9401" cy="64.0088" r="6.73576" transform="rotate(-24.6821 20.9401 64.0088)" fill="#D1D1D1"/>
<circle cx="28.09" cy="59.8151" r="5.36112" transform="rotate(-24.6821 28.09 59.8151)" fill="#D1D1D1"/>
<circle cx="22.6207" cy="57.79" r="3.98647" transform="rotate(-24.6821 22.6207 57.79)" fill="#D1D1D1"/>
<circle cx="21.8649" cy="62.0708" r="5.36112" transform="rotate(-24.6821 21.8649 62.0708)" fill="#D1D1D1"/>
<circle cx="17.8542" cy="60.5857" r="5.36112" transform="rotate(-24.6821 17.8542 60.5857)" fill="#D1D1D1"/>
</g>
<g filter="url(#filter3_d)">
<path d="M66.7746 52.2268C63.5312 54.3729 62.8165 53.3862 60.6779 51.2758C58.3968 49.0247 56.6878 47.6197 59.4998 44.4851C61.2092 42.7528 64.3822 43.1122 66.5869 45.2879C68.7916 47.4635 68.484 50.4945 66.7746 52.2268Z" fill="#4E75FF"/>
<path d="M66.6787 52.1104C65.0689 53.1736 64.1333 53.4252 63.353 53.2032C62.9572 53.0906 62.5853 52.852 62.1738 52.5022C61.8423 52.2203 61.4936 51.874 61.0904 51.4734C60.9915 51.3751 60.8893 51.2736 60.7833 51.169C60.6818 51.0689 60.5817 50.9707 60.4833 50.8741C60.0258 50.4251 59.6047 50.0118 59.2487 49.6069C58.8167 49.1153 58.4915 48.6477 58.3204 48.1619C57.9863 47.2135 58.2211 46.136 59.609 44.5879C61.2387 42.94 64.3115 43.2532 66.4816 45.3946C68.6189 47.5038 68.3241 50.4315 66.6787 52.1104Z" stroke="white" stroke-opacity="0.79" stroke-width="0.3"/>
<path d="M59.5481 45.5767C57.6681 48.5579 58.6024 49.2253 60.6199 51.2162C62.7719 53.3399 64.1241 54.9288 66.9311 52.3533C68.4774 50.7864 68.0449 47.8522 65.965 45.7998C63.885 43.7473 61.0944 44.0098 59.5481 45.5767Z" fill="#4E75FF"/>
<path d="M59.6663 45.6706C58.7371 47.1473 58.537 48.0046 58.7654 48.7224C58.8816 49.0879 59.1133 49.4327 59.4496 49.8154C59.7204 50.1236 60.0514 50.4481 60.4342 50.8235C60.5282 50.9156 60.6252 51.0108 60.7252 51.1095C60.821 51.204 60.9149 51.2971 61.0072 51.3887C61.4365 51.8147 61.8317 52.2066 62.217 52.5383C62.6848 52.941 63.1268 53.2444 63.5801 53.4056C64.0288 53.5652 64.4943 53.5877 65.0171 53.4182C65.5436 53.2474 66.1352 52.8796 66.827 52.2453C67.5578 51.5029 67.8289 50.4299 67.6595 49.2805C67.4898 48.1297 66.8786 46.9121 65.8596 45.9065C63.8433 43.9168 61.1562 44.1732 59.6663 45.6706Z" stroke="white" stroke-opacity="0.79" stroke-width="0.3"/>
<ellipse cx="64.8949" cy="46.4322" rx="12.4186" ry="5.2078" transform="rotate(44.6199 64.8949 46.4322)" fill="#62288B"/>
<path d="M73.6275 55.0497C73.1589 55.5245 72.474 55.7604 71.6154 55.7624C70.756 55.7644 69.7344 55.5315 68.6146 55.0821C66.3756 54.1834 63.7726 52.4305 61.3423 50.0323C58.912 47.634 57.1247 45.0545 56.1964 42.8276C55.7321 41.7139 55.4857 40.6955 55.4763 39.8361C55.467 38.9775 55.6937 38.2896 56.1623 37.8147C56.6309 37.3399 57.3157 37.104 58.1744 37.102C59.0338 37.1 60.0554 37.3329 61.1752 37.7823C63.4142 38.681 66.0172 40.4339 68.4475 42.8322C70.8778 45.2304 72.6651 47.8099 73.5934 50.0368C74.0576 51.1505 74.3041 52.169 74.3134 53.0283C74.3228 53.8869 74.0961 54.5748 73.6275 55.0497Z" stroke="white" stroke-opacity="0.79" stroke-width="0.3"/>
<ellipse cx="64.8949" cy="46.4322" rx="12.4186" ry="5.2078" transform="rotate(44.6199 64.8949 46.4322)" fill="#62288B"/>
<path d="M73.6275 55.0497C73.1589 55.5245 72.474 55.7604 71.6154 55.7624C70.756 55.7644 69.7344 55.5315 68.6146 55.0821C66.3756 54.1834 63.7726 52.4305 61.3423 50.0323C58.912 47.634 57.1247 45.0545 56.1964 42.8276C55.7321 41.7139 55.4857 40.6955 55.4763 39.8361C55.467 38.9775 55.6937 38.2896 56.1623 37.8147C56.6309 37.3399 57.3157 37.104 58.1744 37.102C59.0338 37.1 60.0554 37.3329 61.1752 37.7823C63.4142 38.681 66.0172 40.4339 68.4475 42.8322C70.8778 45.2304 72.6651 47.8099 73.5934 50.0368C74.0576 51.1505 74.3041 52.169 74.3134 53.0283C74.3228 53.8869 74.0961 54.5748 73.6275 55.0497Z" stroke="white" stroke-opacity="0.79" stroke-width="0.3"/>
<path d="M95.4741 65.6335C91.9775 69.1768 77.9088 60.9631 64.0507 47.2876C50.1926 33.6122 41.7929 19.6537 45.2894 16.1104C48.786 12.5671 64.1209 19.4978 77.9791 33.1732C91.8372 46.8486 98.9707 62.0903 95.4741 65.6335Z" fill="url(#paint0_linear)"/>
<path d="M95.3673 65.5282C94.5523 66.3541 93.0899 66.5221 91.0728 66.039C89.066 65.5585 86.561 64.4446 83.7236 62.7881C78.0507 59.4761 71.0788 54.0124 64.156 47.1809C57.2332 40.3493 51.6775 33.4505 48.2906 27.8221C46.5965 25.0069 45.4495 22.5169 44.9424 20.5167C44.4326 18.5061 44.5811 17.0417 45.3962 16.2158C46.215 15.386 47.7611 15.1427 49.8983 15.5064C52.0243 15.8682 54.6873 16.823 57.6816 18.319C63.6687 21.3102 70.9543 26.4518 77.8737 33.28C84.7931 40.1081 90.0309 47.3249 93.1013 53.2717C94.6369 56.246 95.6269 58.8961 96.0169 61.017C96.4089 63.1493 96.1862 64.6984 95.3673 65.5282Z" stroke="white" stroke-opacity="0.79" stroke-width="0.3"/>
<circle cx="49.7013" cy="19.3391" r="1.4021" transform="rotate(44.6199 49.7013 19.3391)" fill="#48D7CE"/>
<circle cx="49.7013" cy="19.3391" r="1.2521" transform="rotate(44.6199 49.7013 19.3391)" stroke="white" stroke-opacity="0.79" stroke-width="0.3"/>
<circle cx="91.6173" cy="60.7018" r="1.4021" transform="rotate(44.6199 91.6173 60.7018)" fill="#48D7CE"/>
<circle cx="91.6173" cy="60.7018" r="1.2521" transform="rotate(44.6199 91.6173 60.7018)" stroke="white" stroke-opacity="0.79" stroke-width="0.3"/>
<circle cx="85.3442" cy="54.5114" r="1.4021" transform="rotate(44.6199 85.3442 54.5114)" fill="#48D7CE"/>
<circle cx="85.3442" cy="54.5114" r="1.2521" transform="rotate(44.6199 85.3442 54.5114)" stroke="white" stroke-opacity="0.79" stroke-width="0.3"/>
<circle cx="79.0711" cy="48.321" r="1.4021" transform="rotate(44.6199 79.0711 48.321)" fill="#48D7CE"/>
<circle cx="79.0711" cy="48.321" r="1.2521" transform="rotate(44.6199 79.0711 48.321)" stroke="white" stroke-opacity="0.79" stroke-width="0.3"/>
<circle cx="73.0832" cy="42.412" r="1.4021" transform="rotate(44.6199 73.0832 42.412)" fill="#48D7CE"/>
<circle cx="73.0832" cy="42.412" r="1.2521" transform="rotate(44.6199 73.0832 42.412)" stroke="white" stroke-opacity="0.79" stroke-width="0.3"/>
<circle cx="67.6655" cy="37.0657" r="1.4021" transform="rotate(44.6199 67.6655 37.0657)" fill="#48D7CE"/>
<circle cx="67.6655" cy="37.0657" r="1.2521" transform="rotate(44.6199 67.6655 37.0657)" stroke="white" stroke-opacity="0.79" stroke-width="0.3"/>
<circle cx="61.9627" cy="31.4381" r="1.4021" transform="rotate(44.6199 61.9627 31.4381)" fill="#48D7CE"/>
<circle cx="61.9627" cy="31.4381" r="1.2521" transform="rotate(44.6199 61.9627 31.4381)" stroke="white" stroke-opacity="0.79" stroke-width="0.3"/>
<circle cx="55.9747" cy="25.5291" r="1.4021" transform="rotate(44.6199 55.9747 25.5291)" fill="#48D7CE"/>
<circle cx="55.9747" cy="25.5291" r="1.2521" transform="rotate(44.6199 55.9747 25.5291)" stroke="white" stroke-opacity="0.79" stroke-width="0.3"/>
<path d="M58.8108 11.6563L58.0721 11.2703L55.2909 19.6864L55.3756 21.0864L56.8997 20.4853L58.8108 11.6563Z" fill="#642763"/>
<path d="M56.77 20.3752L58.64 11.7363L58.1591 11.485L55.4423 19.7061L55.5128 20.8711L56.77 20.3752Z" stroke="white" stroke-opacity="0.79" stroke-width="0.3"/>
<path d="M58.8108 11.6563L58.0721 11.2703L56.3572 19.1531L55.3756 21.0864L56.8997 20.4854L58.8108 11.6563Z" fill="#892982"/>
<path d="M58.64 11.7363L58.1769 11.4943L56.5038 19.185L56.4997 19.2038L56.491 19.221L55.6883 20.8019L56.77 20.3752L58.64 11.7363Z" stroke="white" stroke-opacity="0.79" stroke-width="0.3"/>
<path d="M99.9951 51.7493L100.403 52.5048L91.7734 55.4841L90.3305 55.416L90.9287 53.8382L99.9951 51.7493Z" fill="#642763"/>
<path d="M91.0405 53.9664L99.9174 51.9212L100.187 52.4207L91.7517 55.3329L90.544 55.2759L91.0405 53.9664Z" stroke="white" stroke-opacity="0.79" stroke-width="0.3"/>
<path d="M99.9951 51.7493L100.403 52.5048L92.3081 54.3786L90.3305 55.416L90.9287 53.8382L99.9951 51.7493Z" fill="#892982"/>
<path d="M99.9174 51.9212L100.177 52.403L92.2743 54.2325L92.2555 54.2369L92.2384 54.2458L90.6109 55.0995L91.0405 53.9664L99.9174 51.9212Z" stroke="white" stroke-opacity="0.79" stroke-width="0.3"/>
<path d="M87.2518 43.1679C84.5787 45.8767 84.2822 43.8958 75.3003 35.0322C67.3164 27.1536 65.0447 26.3188 67.5771 23.7526C70.5298 20.7605 80.7043 19.2595 86.1373 24.6209C91.5703 29.9823 90.2044 40.1758 87.2518 43.1679Z" fill="#49BFB8"/>
<path d="M87.145 43.0625C86.4762 43.7403 85.9899 44.0861 85.5042 44.1367C85.0245 44.1867 84.498 43.9523 83.7374 43.324C82.9801 42.6986 82.0244 41.7121 80.6893 40.3198C80.5996 40.2262 80.5081 40.1308 80.4149 40.0335C79.1248 38.6874 77.5014 36.9936 75.4057 34.9255C73.7365 33.2783 72.3165 31.9385 71.1389 30.8274C70.9073 30.6089 70.6852 30.3993 70.4723 30.1979C69.1744 28.9699 68.2284 28.0534 67.6108 27.3048C66.9908 26.5533 66.7262 25.9991 66.7427 25.4946C66.7591 24.9918 67.0564 24.4937 67.6839 23.8579C68.399 23.1332 69.5639 22.4882 71.0056 22.0145C72.4447 21.5417 74.1484 21.2434 75.9303 21.2041C79.4975 21.1256 83.3539 22.0849 86.0319 24.7276C88.7099 27.3703 89.7203 31.2137 89.6891 34.7815C89.6736 36.5639 89.3979 38.2713 88.9442 39.7166C88.4897 41.1645 87.8601 42.3378 87.145 43.0625Z" stroke="white" stroke-opacity="0.79" stroke-width="0.3"/>
<rect x="65.3185" y="24.9006" width="29.2438" height="0.4006" rx="0.2003" transform="rotate(44.6199 65.3185 24.9006)" fill="#48D7CE"/>
<rect x="65.3194" y="25.0423" width="29.0435" height="0.2003" rx="0.10015" transform="rotate(44.6199 65.3194 25.0423)" stroke="white" stroke-opacity="0.79" stroke-width="0.2003"/>
<circle cx="58.4282" cy="11.066" r="1.4021" transform="rotate(44.6199 58.4282 11.066)" fill="#48D7CE"/>
<circle cx="58.4282" cy="11.066" r="1.2521" transform="rotate(44.6199 58.4282 11.066)" stroke="white" stroke-opacity="0.79" stroke-width="0.3"/>
<circle cx="100.059" cy="52.1476" r="1.4021" transform="rotate(44.6199 100.059 52.1476)" fill="#48D7CE"/>
<circle cx="100.059" cy="52.1476" r="1.2521" transform="rotate(44.6199 100.059 52.1476)" stroke="white" stroke-opacity="0.79" stroke-width="0.3"/>
</g>
<g filter="url(#filter4_d)">
<circle r="6.10071" transform="matrix(-0.908639 0.417583 0.417583 0.908639 42.1962 55.4621)" fill="#9D9D9D"/>
<circle r="2.97214" transform="matrix(-0.908639 0.417583 0.417583 0.908639 47.5514 54.3782)" fill="#9D9D9D"/>
<circle r="7.665" transform="matrix(-0.908639 0.417583 0.417583 0.908639 37.7094 59.9343)" fill="#9D9D9D"/>
<circle r="6.10071" transform="matrix(-0.908639 0.417583 0.417583 0.908639 28.7894 63.0007)" fill="#9D9D9D"/>
<circle r="4.53643" transform="matrix(-0.908639 0.417583 0.417583 0.908639 31.0938 56.7769)" fill="#9D9D9D"/>
<circle r="6.10071" transform="matrix(-0.908639 0.417583 0.417583 0.908639 35.3506 59.2967)" fill="#9D9D9D"/>
<circle r="6.10071" transform="matrix(-0.908639 0.417583 0.417583 0.908639 37.0406 54.7326)" fill="#9D9D9D"/>
<circle cx="37.3485" cy="60.6472" r="7.93929" transform="rotate(-24.6821 37.3485 60.6472)" fill="#D1D1D1"/>
<circle cx="31.7395" cy="65.0173" r="3.86786" transform="rotate(-24.6821 31.7395 65.0173)" fill="#D1D1D1"/>
<circle cx="45.5676" cy="60.0066" r="9.975" transform="rotate(-24.6821 45.5676 60.0066)" fill="#D1D1D1"/>
<circle cx="56.1558" cy="53.7962" r="7.93929" transform="rotate(-24.6821 56.1558 53.7962)" fill="#D1D1D1"/>
<circle cx="48.0565" cy="50.7972" r="5.90357" transform="rotate(-24.6821 48.0565 50.7972)" fill="#D1D1D1"/>
<circle cx="46.9372" cy="57.1367" r="7.93929" transform="rotate(-24.6821 46.9372 57.1367)" fill="#D1D1D1"/>
<circle cx="40.9976" cy="54.9375" r="7.93929" transform="rotate(-24.6821 40.9976 54.9375)" fill="#D1D1D1"/>
</g>
<defs>
<filter id="filter0_d" x="24.4658" y="41.1368" width="53.874" height="38.6457" filterUnits="userSpaceOnUse" color-interpolation-filters="sRGB">
<feFlood flood-opacity="0" result="BackgroundImageFix"/>
<feColorMatrix in="SourceAlpha" type="matrix" values="0 0 0 0 0 0 0 0 0 0 0 0 0 0 0 0 0 0 127 0"/>
<feOffset dy="4"/>
<feGaussianBlur stdDeviation="2"/>
<feColorMatrix type="matrix" values="0 0 0 0 0 0 0 0 0 0 0 0 0 0 0 0 0 0 0.25 0"/>
<feBlend mode="normal" in2="BackgroundImageFix" result="effect1_dropShadow"/>
<feBlend mode="normal" in="SourceGraphic" in2="effect1_dropShadow" result="shape"/>
</filter>
<filter id="filter1_d" x="15.6985" y="34.968" width="53.9866" height="38.2678" filterUnits="userSpaceOnUse" color-interpolation-filters="sRGB">
<feFlood flood-opacity="0" result="BackgroundImageFix"/>
<feColorMatrix in="SourceAlpha" type="matrix" values="0 0 0 0 0 0 0 0 0 0 0 0 0 0 0 0 0 0 127 0"/>
<feOffset dy="4"/>
<feGaussianBlur stdDeviation="2"/>
<feColorMatrix type="matrix" values="0 0 0 0 0 0 0 0 0 0 0 0 0 0 0 0 0 0 0.25 0"/>
<feBlend mode="normal" in2="BackgroundImageFix" result="effect1_dropShadow"/>
<feBlend mode="normal" in="SourceGraphic" in2="effect1_dropShadow" result="shape"/>
</filter>
<filter id="filter2_d" x="0.146851" y="52.5031" width="39.0532" height="28.4389" filterUnits="userSpaceOnUse" color-interpolation-filters="sRGB">
<feFlood flood-opacity="0" result="BackgroundImageFix"/>
<feColorMatrix in="SourceAlpha" type="matrix" values="0 0 0 0 0 0 0 0 0 0 0 0 0 0 0 0 0 0 127 0"/>
<feOffset dy="4"/>
<feGaussianBlur stdDeviation="2"/>
<feColorMatrix type="matrix" values="0 0 0 0 0 0 0 0 0 0 0 0 0 0 0 0 0 0 0.25 0"/>
<feBlend mode="normal" in2="BackgroundImageFix" result="effect1_dropShadow"/>
<feBlend mode="normal" in="SourceGraphic" in2="effect1_dropShadow" result="shape"/>
</filter>
<filter id="filter3_d" x="34.9584" y="8.41162" width="72.1131" height="71.6376" filterUnits="userSpaceOnUse" color-interpolation-filters="sRGB">
<feFlood flood-opacity="0" result="BackgroundImageFix"/>
<feColorMatrix in="SourceAlpha" type="matrix" values="0 0 0 0 0 0 0 0 0 0 0 0 0 0 0 0 0 0 127 0"/>
<feOffset dy="4"/>
<feGaussianBlur stdDeviation="2"/>
<feColorMatrix type="matrix" values="0 0 0 0 0 0 0 0 0 0 0 0 0 0 0 0 0 0 0.25 0"/>
<feBlend mode="normal" in2="BackgroundImageFix" result="effect1_dropShadow"/>
<feBlend mode="normal" in="SourceGraphic" in2="effect1_dropShadow" result="shape"/>
</filter>
<filter id="filter4_d" x="16.6985" y="42.9678" width="53.9866" height="38.2678" filterUnits="userSpaceOnUse" color-interpolation-filters="sRGB">
<feFlood flood-opacity="0" result="BackgroundImageFix"/>
<feColorMatrix in="SourceAlpha" type="matrix" values="0 0 0 0 0 0 0 0 0 0 0 0 0 0 0 0 0 0 127 0"/>
<feOffset dy="4"/>
<feGaussianBlur stdDeviation="2"/>
<feColorMatrix type="matrix" values="0 0 0 0 0 0 0 0 0 0 0 0 0 0 0 0 0 0 0.25 0"/>
<feBlend mode="normal" in2="BackgroundImageFix" result="effect1_dropShadow"/>
<feBlend mode="normal" in="SourceGraphic" in2="effect1_dropShadow" result="shape"/>
</filter>
<linearGradient id="paint0_linear" x1="77.9791" y1="33.1732" x2="64.0507" y2="47.2876" gradientUnits="userSpaceOnUse">
<stop stop-color="#A6489F"/>
<stop offset="1" stop-color="#031615"/>
</linearGradient>
</defs>
</svg>
