<svg width="197" height="60" viewBox="0 0 197 60" fill="none" xmlns="http://www.w3.org/2000/svg">
<g filter="url(#filter0_i)">
<path d="M33.7188 48L29.1875 35.0938H11.25L6.71875 48H0.8125L17.4375 2.90625H23L39.625 48H33.7188ZM19.9688 10.1875L12.9062 30.3125H27.5312L20.4688 10.1875H19.9688ZM57.4375 48.5938C53.125 48.5938 49.6875 47.0104 47.125 43.8438C44.5625 40.6771 43.2812 36.4479 43.2812 31.1562C43.2812 25.8854 44.5625 21.6667 47.125 18.5C49.7083 15.3125 53.1458 13.7188 57.4375 13.7188C59.7917 13.7188 61.8958 14.25 63.75 15.3125C65.625 16.3542 67.0417 17.7917 68 19.625H68.4688V0.9375H73.8438V48H68.7188V42.625H68.2188C67.1562 44.5 65.6771 45.9688 63.7812 47.0312C61.8854 48.0729 59.7708 48.5938 57.4375 48.5938ZM58.6875 18.5625C55.625 18.5625 53.2188 19.6875 51.4688 21.9375C49.7188 24.1667 48.8438 27.2396 48.8438 31.1562C48.8438 35.0938 49.7083 38.1771 51.4375 40.4062C53.1875 42.6354 55.6042 43.75 58.6875 43.75C61.75 43.75 64.1667 42.625 65.9375 40.375C67.7083 38.125 68.5938 35.0521 68.5938 31.1562C68.5938 27.3021 67.6979 24.2396 65.9062 21.9688C64.1354 19.6979 61.7292 18.5625 58.6875 18.5625ZM114.281 48L109.75 35.0938H91.8125L87.2812 48H81.375L98 2.90625H103.562L120.188 48H114.281ZM100.531 10.1875L93.4688 30.3125H108.094L101.031 10.1875H100.531ZM143.812 13.7188C148.104 13.7188 151.531 15.3021 154.094 18.4688C156.677 21.6354 157.969 25.8646 157.969 31.1562C157.969 36.4271 156.677 40.6562 154.094 43.8438C151.51 47.0104 148.083 48.5938 143.812 48.5938C141.417 48.5938 139.292 48.1042 137.438 47.125C135.583 46.125 134.198 44.7292 133.281 42.9375H132.781V59.25H127.406V14.3125H132.531V19.9375H133.031C134.115 18 135.604 16.4792 137.5 15.375C139.417 14.2708 141.521 13.7188 143.812 13.7188ZM142.531 43.75C145.615 43.75 148.031 42.6354 149.781 40.4062C151.531 38.1771 152.406 35.0938 152.406 31.1562C152.406 27.2188 151.531 24.1354 149.781 21.9062C148.052 19.6771 145.646 18.5625 142.562 18.5625C139.521 18.5625 137.104 19.6979 135.312 21.9688C133.521 24.2188 132.625 27.2812 132.625 31.1562C132.625 35.0104 133.51 38.0729 135.281 40.3438C137.073 42.6146 139.49 43.75 142.531 43.75ZM182.812 13.7188C187.104 13.7188 190.531 15.3021 193.094 18.4688C195.677 21.6354 196.969 25.8646 196.969 31.1562C196.969 36.4271 195.677 40.6562 193.094 43.8438C190.51 47.0104 187.083 48.5938 182.812 48.5938C180.417 48.5938 178.292 48.1042 176.438 47.125C174.583 46.125 173.198 44.7292 172.281 42.9375H171.781V59.25H166.406V14.3125H171.531V19.9375H172.031C173.115 18 174.604 16.4792 176.5 15.375C178.417 14.2708 180.521 13.7188 182.812 13.7188ZM181.531 43.75C184.615 43.75 187.031 42.6354 188.781 40.4062C190.531 38.1771 191.406 35.0938 191.406 31.1562C191.406 27.2188 190.531 24.1354 188.781 21.9062C187.052 19.6771 184.646 18.5625 181.562 18.5625C178.521 18.5625 176.104 19.6979 174.312 21.9688C172.521 24.2188 171.625 27.2812 171.625 31.1562C171.625 35.0104 172.51 38.0729 174.281 40.3438C176.073 42.6146 178.49 43.75 181.531 43.75Z" fill="url(#paint0_linear)"/>
</g>
<defs>
<filter id="filter0_i" x="0.8125" y="0.9375" width="196.156" height="62.3125" filterUnits="userSpaceOnUse" color-interpolation-filters="sRGB">
<feFlood flood-opacity="0" result="BackgroundImageFix"/>
<feBlend mode="normal" in="SourceGraphic" in2="BackgroundImageFix" result="shape"/>
<feColorMatrix in="SourceAlpha" type="matrix" values="0 0 0 0 0 0 0 0 0 0 0 0 0 0 0 0 0 0 127 0" result="hardAlpha"/>
<feOffset dy="4"/>
<feGaussianBlur stdDeviation="2"/>
<feComposite in2="hardAlpha" operator="arithmetic" k2="-1" k3="1"/>
<feColorMatrix type="matrix" values="0 0 0 0 0 0 0 0 0 0 0 0 0 0 0 0 0 0 0.25 0"/>
<feBlend mode="normal" in2="shape" result="effect1_innerShadow"/>
</filter>
<linearGradient id="paint0_linear" x1="99.5" y1="9.70946" x2="99.5" y2="46.4899" gradientUnits="userSpaceOnUse">
<stop stop-color="#1F578B"/>
<stop offset="1" stop-color="#8C1680"/>
</linearGradient>
</defs>
</svg>
