<svg width="354" height="88" viewBox="0 0 354 88" fill="none" xmlns="http://www.w3.org/2000/svg">
<g filter="url(#filter0_i)">
<path d="M49.8438 71L43.0469 51.6406H16.1406L9.34375 71H0.484375L25.4219 3.35938H33.7656L58.7031 71H49.8438ZM29.2188 14.2812L18.625 44.4688H40.5625L29.9688 14.2812H29.2188ZM85.4219 71.8906C78.9531 71.8906 73.7969 69.5156 69.9531 64.7656C66.1094 60.0156 64.1875 53.6719 64.1875 45.7344C64.1875 37.8281 66.1094 31.5 69.9531 26.75C73.8281 21.9688 78.9844 19.5781 85.4219 19.5781C88.9531 19.5781 92.1094 20.375 94.8906 21.9688C97.7031 23.5312 99.8281 25.6875 101.266 28.4375H101.969V0.40625H110.031V71H102.344V62.9375H101.594C100 65.75 97.7812 67.9531 94.9375 69.5469C92.0938 71.1094 88.9219 71.8906 85.4219 71.8906ZM87.2969 26.8438C82.7031 26.8438 79.0938 28.5312 76.4688 31.9062C73.8438 35.25 72.5312 39.8594 72.5312 45.7344C72.5312 51.6406 73.8281 56.2656 76.4219 59.6094C79.0469 62.9531 82.6719 64.625 87.2969 64.625C91.8906 64.625 95.5156 62.9375 98.1719 59.5625C100.828 56.1875 102.156 51.5781 102.156 45.7344C102.156 39.9531 100.812 35.3594 98.125 31.9531C95.4688 28.5469 91.8594 26.8438 87.2969 26.8438ZM144.391 71.8906C137.922 71.8906 132.766 69.5156 128.922 64.7656C125.078 60.0156 123.156 53.6719 123.156 45.7344C123.156 37.8281 125.078 31.5 128.922 26.75C132.797 21.9688 137.953 19.5781 144.391 19.5781C147.922 19.5781 151.078 20.375 153.859 21.9688C156.672 23.5312 158.797 25.6875 160.234 28.4375H160.938V0.40625H169V71H161.312V62.9375H160.562C158.969 65.75 156.75 67.9531 153.906 69.5469C151.062 71.1094 147.891 71.8906 144.391 71.8906ZM146.266 26.8438C141.672 26.8438 138.062 28.5312 135.438 31.9062C132.812 35.25 131.5 39.8594 131.5 45.7344C131.5 51.6406 132.797 56.2656 135.391 59.6094C138.016 62.9531 141.641 64.625 146.266 64.625C150.859 64.625 154.484 62.9375 157.141 59.5625C159.797 56.1875 161.125 51.5781 161.125 45.7344C161.125 39.9531 159.781 35.3594 157.094 31.9531C154.438 28.5469 150.828 26.8438 146.266 26.8438ZM229.656 71L222.859 51.6406H195.953L189.156 71H180.297L205.234 3.35938H213.578L238.516 71H229.656ZM209.031 14.2812L198.438 44.4688H220.375L209.781 14.2812H209.031ZM273.953 19.5781C280.391 19.5781 285.531 21.9531 289.375 26.7031C293.25 31.4531 295.188 37.7969 295.188 45.7344C295.188 53.6406 293.25 59.9844 289.375 64.7656C285.5 69.5156 280.359 71.8906 273.953 71.8906C270.359 71.8906 267.172 71.1562 264.391 69.6875C261.609 68.1875 259.531 66.0938 258.156 63.4062H257.406V87.875H249.344V20.4688H257.031V28.9062H257.781C259.406 26 261.641 23.7188 264.484 22.0625C267.359 20.4062 270.516 19.5781 273.953 19.5781ZM272.031 64.625C276.656 64.625 280.281 62.9531 282.906 59.6094C285.531 56.2656 286.844 51.6406 286.844 45.7344C286.844 39.8281 285.531 35.2031 282.906 31.8594C280.312 28.5156 276.703 26.8438 272.078 26.8438C267.516 26.8438 263.891 28.5469 261.203 31.9531C258.516 35.3281 257.172 39.9219 257.172 45.7344C257.172 51.5156 258.5 56.1094 261.156 59.5156C263.844 62.9219 267.469 64.625 272.031 64.625ZM332.453 19.5781C338.891 19.5781 344.031 21.9531 347.875 26.7031C351.75 31.4531 353.688 37.7969 353.688 45.7344C353.688 53.6406 351.75 59.9844 347.875 64.7656C344 69.5156 338.859 71.8906 332.453 71.8906C328.859 71.8906 325.672 71.1562 322.891 69.6875C320.109 68.1875 318.031 66.0938 316.656 63.4062H315.906V87.875H307.844V20.4688H315.531V28.9062H316.281C317.906 26 320.141 23.7188 322.984 22.0625C325.859 20.4062 329.016 19.5781 332.453 19.5781ZM330.531 64.625C335.156 64.625 338.781 62.9531 341.406 59.6094C344.031 56.2656 345.344 51.6406 345.344 45.7344C345.344 39.8281 344.031 35.2031 341.406 31.8594C338.812 28.5156 335.203 26.8438 330.578 26.8438C326.016 26.8438 322.391 28.5469 319.703 31.9531C317.016 35.3281 315.672 39.9219 315.672 45.7344C315.672 51.5156 317 56.1094 319.656 59.5156C322.344 62.9219 325.969 64.625 330.531 64.625Z" fill="url(#paint0_linear)"/>
</g>
<defs>
<filter id="filter0_i" x="0.484375" y="0.40625" width="353.203" height="91.4688" filterUnits="userSpaceOnUse" color-interpolation-filters="sRGB">
<feFlood flood-opacity="0" result="BackgroundImageFix"/>
<feBlend mode="normal" in="SourceGraphic" in2="BackgroundImageFix" result="shape"/>
<feColorMatrix in="SourceAlpha" type="matrix" values="0 0 0 0 0 0 0 0 0 0 0 0 0 0 0 0 0 0 127 0" result="hardAlpha"/>
<feOffset dy="4"/>
<feGaussianBlur stdDeviation="2"/>
<feComposite in2="hardAlpha" operator="arithmetic" k2="-1" k3="1"/>
<feColorMatrix type="matrix" values="0 0 0 0 0 0 0 0 0 0 0 0 0 0 0 0 0 0 0.25 0"/>
<feBlend mode="normal" in2="shape" result="effect1_innerShadow"/>
</filter>
<linearGradient id="paint0_linear" x1="178" y1="-4" x2="178" y2="91.5" gradientUnits="userSpaceOnUse">
<stop stop-color="#1F578B"/>
<stop offset="1" stop-color="#8C1680"/>
</linearGradient>
</defs>
</svg>
