<svg width="296" height="88" viewBox="0 0 296 88" fill="none" xmlns="http://www.w3.org/2000/svg">
<g filter="url(#filter0_i)">
<path d="M50.3281 71L43.5312 51.6406H16.625L9.82812 71H0.96875L25.9062 3.35938H34.25L59.1875 71H50.3281ZM29.7031 14.2812L19.1094 44.4688H41.0469L30.4531 14.2812H29.7031ZM85.9062 71.8906C79.4375 71.8906 74.2812 69.5156 70.4375 64.7656C66.5938 60.0156 64.6719 53.6719 64.6719 45.7344C64.6719 37.8281 66.5938 31.5 70.4375 26.75C74.3125 21.9688 79.4688 19.5781 85.9062 19.5781C89.4375 19.5781 92.5938 20.375 95.375 21.9688C98.1875 23.5312 100.312 25.6875 101.75 28.4375H102.453V0.40625H110.516V71H102.828V62.9375H102.078C100.484 65.75 98.2656 67.9531 95.4219 69.5469C92.5781 71.1094 89.4062 71.8906 85.9062 71.8906ZM87.7812 26.8438C83.1875 26.8438 79.5781 28.5312 76.9531 31.9062C74.3281 35.25 73.0156 39.8594 73.0156 45.7344C73.0156 51.6406 74.3125 56.2656 76.9062 59.6094C79.5312 62.9531 83.1562 64.625 87.7812 64.625C92.375 64.625 96 62.9375 98.6562 59.5625C101.312 56.1875 102.641 51.5781 102.641 45.7344C102.641 39.9531 101.297 35.3594 98.6094 31.9531C95.9531 28.5469 92.3438 26.8438 87.7812 26.8438ZM171.172 71L164.375 51.6406H137.469L130.672 71H121.812L146.75 3.35938H155.094L180.031 71H171.172ZM150.547 14.2812L139.953 44.4688H161.891L151.297 14.2812H150.547ZM215.469 19.5781C221.906 19.5781 227.047 21.9531 230.891 26.7031C234.766 31.4531 236.703 37.7969 236.703 45.7344C236.703 53.6406 234.766 59.9844 230.891 64.7656C227.016 69.5156 221.875 71.8906 215.469 71.8906C211.875 71.8906 208.688 71.1562 205.906 69.6875C203.125 68.1875 201.047 66.0938 199.672 63.4062H198.922V87.875H190.859V20.4688H198.547V28.9062H199.297C200.922 26 203.156 23.7188 206 22.0625C208.875 20.4062 212.031 19.5781 215.469 19.5781ZM213.547 64.625C218.172 64.625 221.797 62.9531 224.422 59.6094C227.047 56.2656 228.359 51.6406 228.359 45.7344C228.359 39.8281 227.047 35.2031 224.422 31.8594C221.828 28.5156 218.219 26.8438 213.594 26.8438C209.031 26.8438 205.406 28.5469 202.719 31.9531C200.031 35.3281 198.688 39.9219 198.688 45.7344C198.688 51.5156 200.016 56.1094 202.672 59.5156C205.359 62.9219 208.984 64.625 213.547 64.625ZM273.969 19.5781C280.406 19.5781 285.547 21.9531 289.391 26.7031C293.266 31.4531 295.203 37.7969 295.203 45.7344C295.203 53.6406 293.266 59.9844 289.391 64.7656C285.516 69.5156 280.375 71.8906 273.969 71.8906C270.375 71.8906 267.188 71.1562 264.406 69.6875C261.625 68.1875 259.547 66.0938 258.172 63.4062H257.422V87.875H249.359V20.4688H257.047V28.9062H257.797C259.422 26 261.656 23.7188 264.5 22.0625C267.375 20.4062 270.531 19.5781 273.969 19.5781ZM272.047 64.625C276.672 64.625 280.297 62.9531 282.922 59.6094C285.547 56.2656 286.859 51.6406 286.859 45.7344C286.859 39.8281 285.547 35.2031 282.922 31.8594C280.328 28.5156 276.719 26.8438 272.094 26.8438C267.531 26.8438 263.906 28.5469 261.219 31.9531C258.531 35.3281 257.188 39.9219 257.188 45.7344C257.188 51.5156 258.516 56.1094 261.172 59.5156C263.859 62.9219 267.484 64.625 272.047 64.625Z" fill="url(#paint0_linear)"/>
</g>
<defs>
<filter id="filter0_i" x="0.96875" y="0.40625" width="294.234" height="91.4688" filterUnits="userSpaceOnUse" color-interpolation-filters="sRGB">
<feFlood flood-opacity="0" result="BackgroundImageFix"/>
<feBlend mode="normal" in="SourceGraphic" in2="BackgroundImageFix" result="shape"/>
<feColorMatrix in="SourceAlpha" type="matrix" values="0 0 0 0 0 0 0 0 0 0 0 0 0 0 0 0 0 0 127 0" result="hardAlpha"/>
<feOffset dy="4"/>
<feGaussianBlur stdDeviation="2"/>
<feComposite in2="hardAlpha" operator="arithmetic" k2="-1" k3="1"/>
<feColorMatrix type="matrix" values="0 0 0 0 0 0 0 0 0 0 0 0 0 0 0 0 0 0 0.25 0"/>
<feBlend mode="normal" in2="shape" result="effect1_innerShadow"/>
</filter>
<linearGradient id="paint0_linear" x1="149" y1="-4" x2="149" y2="91.5" gradientUnits="userSpaceOnUse">
<stop stop-color="#182943"/>
<stop offset="1" stop-color="#893680"/>
</linearGradient>
</defs>
</svg>
