<svg width="29" height="29" viewBox="0 0 29 29" fill="none" xmlns="http://www.w3.org/2000/svg">
<circle cx="14.5" cy="14.5" r="14.5" fill="#32BEA6"/>
<path d="M23 15C23 16.3795 22.3017 17.6502 21.1279 18.6637C20.2971 19.381 19.2281 19.9694 18 20.3763C16.795 20.7755 15.4368 21 14 21C9.02944 21 5 18.3137 5 15C5 11.6863 9.02944 9 14 9C18.9706 9 23 11.6863 23 15Z" fill="white"/>
<circle cx="10" cy="15" r="1" fill="#5B5C5F"/>
<circle cx="14" cy="15" r="1" fill="#5B5C5F"/>
<circle cx="18" cy="15" r="1" fill="#5B5C5F"/>
<circle cx="8" cy="10" r="3" fill="#FA5655"/>
<path d="M18 19L22.5 17C19.5396 19.9161 18.6683 21.4001 20 23.5C17 23.5 15.5 20.5 15.5 20.5L18 19Z" fill="white"/>
<path d="M8.05002 8.2C8.26602 8.2 8.45268 8.23467 8.61002 8.304C8.77002 8.37067 8.89268 8.46667 8.97802 8.592C9.06602 8.71733 9.11002 8.86267 9.11002 9.028C9.11002 9.18267 9.07135 9.32267 8.99402 9.448C8.91668 9.57333 8.81935 9.684 8.70202 9.78C8.58468 9.876 8.42335 9.99333 8.21802 10.132C8.10335 10.2067 8.01002 10.2707 7.93802 10.324H9.14202V11H6.86202V10.808C6.86202 10.6667 6.89402 10.5413 6.95802 10.432C7.02468 10.32 7.12068 10.208 7.24602 10.096C7.37402 9.984 7.55802 9.832 7.79802 9.64C7.99002 9.488 8.12468 9.372 8.20202 9.292C8.27935 9.212 8.31802 9.13333 8.31802 9.056C8.31802 8.97333 8.28868 8.904 8.23002 8.848C8.17402 8.792 8.08868 8.764 7.97402 8.764C7.85402 8.764 7.75935 8.79867 7.69002 8.868C7.62068 8.93733 7.58602 9.028 7.58602 9.14V9.22H6.87402C6.87135 9.19867 6.87002 9.16933 6.87002 9.132C6.87002 8.844 6.97002 8.61733 7.17002 8.452C7.37268 8.284 7.66602 8.2 8.05002 8.2Z" fill="white"/>
</svg>
