<svg width="250" height="266" viewBox="0 0 250 266" fill="none" xmlns="http://www.w3.org/2000/svg">
<g filter="url(#filter0_d)">
<path d="M30.639 51.2271C35.6631 35.4674 53.1122 24.1055 62.0471 19.6502C70.982 15.1949 85.5648 12.9737 93.2452 16.6138C116.293 23.615 133.59 44.2698 136.233 45.8981C138.876 47.5267 140.86 47.7674 140.86 47.7674C162.498 49.6552 152.979 77.2076 150.585 83.9741C154.092 97.6757 159.074 128.874 153.382 144.96C149.028 157.266 147.728 156.39 139.594 159.234C129.097 162.904 93.0886 149.856 76.3966 142.874C75.7307 143.023 72.6688 143.401 65.7488 143.721C49.3983 143.659 45.3125 134.106 45.3134 129.338C45.7951 126.893 45.9598 120.752 42.7645 115.744C35.0872 104.167 30.7261 90.4093 29.5052 84.9777C27.7897 80.294 25.6148 66.9868 30.639 51.2271Z" fill="#A1D032"/>
<path d="M44.0586 37.4981C46.7818 31.0955 56.0536 23.8404 73.2614 18.3659C92.3044 16.4408 105.642 22.0669 135.772 48.0794C137.798 50.6956 139.698 51.5359 143.534 52.6673C156.178 56.3971 154.482 85.7753 137.013 102.153C148.392 101.631 156.823 124.386 154.427 136.398C151.343 151.851 148.533 156.206 141.985 157.809C122.797 154.337 118.718 133.489 107.891 103.589C104.826 94.4921 92.8891 92.2887 77.2313 82.8431C35.6211 57.7417 39.1294 50.5924 44.0586 37.4981Z" fill="#B8EA33"/>
<path d="M119.626 123.194C117.733 124.558 115.432 124.93 113.542 125.11C118.866 122.02 118.866 122.02 123.083 117.409C122.127 120.02 121.608 121.765 119.626 123.194Z" fill="#5C8815"/>
<path d="M119.732 71.504C125.156 56.6264 131.812 50.4801 142.497 53.5582C151.332 56.6841 153.152 67.2222 148.136 82.7042C144.458 94.0579 126.226 111.306 121.028 109.007C117.125 107.626 111.858 93.1074 119.732 71.504Z" fill="url(#paint0_linear)" stroke="black"/>
<path d="M77.3209 140.697C63.608 143.109 52.4783 137.236 50.4189 129.112C48.7199 119.96 54.6823 113.168 72.4095 109.796C84.1107 107.569 106.183 112.344 108.083 119.828C108.677 122.169 97.1555 137.209 77.3209 140.697Z" fill="url(#paint1_linear)" stroke="black"/>
<path d="M138.256 133.835C139.832 132.868 140.263 130.633 141.415 128.079C141.703 127.265 142.573 127.343 142.213 128.361C141.155 131.312 139.922 133.336 139.869 133.719C139.062 139.498 137.236 139.891 134.432 142.107C130.798 144.879 129.328 145.05 127.205 144.133C126.447 143.853 124.827 144.497 122.549 145.236C121.796 145.2 121.682 145.026 122.167 144.413C125.354 143.92 126.719 143.285 128.54 141.626C131.999 137.575 134.26 136.272 138.256 133.835Z" fill="#6A9B25"/>
<path d="M49.4234 114.235C36.6305 97.4023 31.8874 85.741 30.6753 58.3004C28.457 80.3962 33.9022 95.1665 45.6374 115.21C46.927 116.593 46.8802 119.722 47.8664 123.174C51.8901 114.175 59.0515 111.037 73.4202 106.06C65.3598 105.886 60.5737 106.475 49.4234 114.235Z" fill="#97C524"/>
<path d="M129.934 51.3181C117.726 31.4684 108.371 25.913 79.5 17.9734C98.432 18.5937 111.499 25.8238 130.674 46.6896C131.709 48.4391 134.918 49.3273 138.153 51.382C123.786 54.7962 121.592 63.5199 117.115 74.5687C119.301 66.1691 118.739 60.5422 129.934 51.3181Z" fill="#D7FF54"/>
<path d="M51.8696 123.269L53.1199 122.333C61.6787 111.124 76.8379 109.819 93.2966 111.977L94.6656 112.003C81.1587 109.29 58.834 109.429 51.8696 123.269Z" fill="#00F0FF" fill-opacity="0.39"/>
<path d="M65.1437 139.422L66.5126 139.447C84.4012 140.831 97.335 132.588 107.163 121.91L107.508 121.575C98.8917 131.156 81.495 144.233 65.1437 139.422Z" fill="#48D7CE" fill-opacity="0.39"/>
<path d="M148.381 59.2336L148.488 60.5747C150.921 78.0363 143.614 91.2173 133.732 101.499L133.425 101.858C142.304 92.8302 154.083 74.9813 148.381 59.2336Z" fill="#48D7CE" fill-opacity="0.39"/>
<path d="M135.538 54.3077L134.425 55.3826C122.102 61.9779 118.422 76.6003 117.924 93.0429L117.593 91.3869C117.897 77.858 121.677 59.0372 135.538 54.3077Z" fill="#00FFFF" fill-opacity="0.39"/>
<path d="M122.693 157.047C103.601 149.744 95.3709 145.16 98.5871 133.451C91.5843 137.588 87.4235 139.671 79.2335 142.612C102.975 152.775 111.194 155.068 122.693 157.047Z" fill="#95C524"/>
</g>
<path d="M175.89 164.21L198.213 180.805C224.489 210.432 231.844 226.362 228.785 241.251C217.266 237.576 208.843 235.331 202.906 232.292C168.584 219.575 152.301 213.694 136.216 209.731C137.781 209.021 139.738 204.953 139.156 203.163C137.428 193.386 139.272 188.523 146.748 182.506C155.696 165.361 162.696 163.901 175.89 164.21Z" fill="#A1D032"/>
<path d="M172.311 174.273C181.098 178.167 186.87 179.702 199.258 180.822C200.955 183.394 202.094 184.509 204.385 186.055C226.847 202.402 231.645 221.537 234.093 242.909L219.163 238.264C216.762 226.385 227.508 202.207 184.35 183.552C180.963 182.901 178.637 182.143 173.404 179.794C170.014 176.109 169.56 174.791 172.311 174.273Z" fill="#89BA23"/>
<path d="M201.559 166.643L177.22 164.455C170.33 167.08 170.981 172.343 170.981 172.343C171.197 175.632 176.871 177.513 197.819 180.463L220.211 181.502L190.374 209.951C188.584 211.611 183.211 209.251 181.95 206.97C180.684 204.485 175.356 203.031 173.006 203.806C161.334 207.655 159.119 209.889 157.475 213.913C162.437 213.065 164.649 213.704 167.283 217.383C168.653 220.268 168.412 221.867 167.222 224.703C166.695 226.113 164.71 228.954 159.552 235.985C158.06 242.8 162.146 245.546 165.055 246.422C171.729 248.432 173.709 246.331 176.39 241.025L177.234 228.246C178.593 221.155 186.297 223.422 184.385 230.776C184.385 230.776 180.61 238.847 179.047 241.965C177.484 245.083 177.591 250.628 184.202 252.737C190.812 254.847 195.068 250.616 195.754 246.729C195.754 246.729 194.453 235.99 195.215 230.707C197.358 225.501 197.706 222.459 196.9 216.848C204.546 213.37 208.877 210.599 216.746 202.991L247.401 174.832C248.691 172.551 248.819 171.631 246.5 171.53C243.5 172.418 240.905 172.659 225.417 170.037C218.005 168.109 212.838 167.348 201.559 166.643Z" fill="url(#paint2_linear)"/>
<path d="M177.22 164.455C173.147 163.872 175.479 164.483 164.238 164.91C152.391 162.136 149.602 158.788 150.657 150.01C147.964 154.496 145.907 156.288 140.992 157.833C149.248 161.748 151.259 165.414 151.123 174.036C150.912 175.447 150.164 176.909 145.34 183.233C140.356 187.02 139.208 190.063 138.258 196.1C137.963 198.241 138.375 200.766 139.062 204.874C139.166 206.767 137.735 206.097 135.156 204.868C131.343 201.81 128.53 200.052 120.565 196.723C118.245 195.661 115.224 194.923 106.37 193.307C106.589 190.44 106.349 189.062 103.931 187.855C102.139 187.034 100.558 187.57 97.6806 188.626C98.6365 185.025 98.3754 183.546 95.4578 182.563C92.7107 181.493 88.7069 182.28 83.9908 183.783C80.7812 185.364 79.4027 185.655 77.3797 185.573C71.3881 185.324 69.2661 187.062 66.8979 189.207C64.5297 191.352 64.1084 195.792 65.3459 199.442C66.5834 203.092 67.399 203.202 71.1847 204.422L75.498 204.09C75.5438 207.746 78.5295 213.513 81.1136 214.657C83.6977 215.801 88.1907 215.989 92.1241 212.128C94.677 209.762 95.2295 208.082 96.2238 205.09C96.5469 204.054 97.6131 202.651 104.759 195.261M177.22 164.455L201.559 166.643C212.838 167.348 218.005 168.109 225.417 170.037C240.905 172.659 243.5 172.418 246.5 171.53C248.819 171.631 248.691 172.551 247.401 174.832L216.746 202.991C208.877 210.599 204.546 213.37 196.9 216.848C197.706 222.459 197.358 225.501 195.215 230.707C194.453 235.99 195.754 246.729 195.754 246.729C195.068 250.616 190.812 254.847 184.202 252.737C177.591 250.628 177.484 245.083 179.047 241.965C180.61 238.847 184.385 230.776 184.385 230.776C186.297 223.422 178.593 221.155 177.234 228.246L176.39 241.025C173.709 246.331 171.729 248.432 165.055 246.422C162.146 245.546 158.06 242.8 159.552 235.985C164.71 228.954 166.695 226.113 167.222 224.703C168.412 221.867 168.653 220.268 167.283 217.383C164.649 213.704 162.437 213.065 157.475 213.913C159.119 209.889 161.334 207.655 173.006 203.806C175.356 203.031 180.684 204.485 181.95 206.97C183.211 209.251 188.584 211.611 190.374 209.951L220.211 181.502L197.819 180.463C176.871 177.513 171.197 175.632 170.981 172.343C170.981 172.343 170.33 167.08 177.22 164.455Z" stroke="#A1D032" stroke-width="2"/>
<path d="M85.9266 197.219C98.1233 190.294 100.091 189.355 99.2794 183.871C98.6113 179.355 89.4896 181.199 79.4662 184.097C72.9888 183.58 69.3922 183.922 65.4993 188.375C61.3913 192.842 61.5036 196.122 65.8616 202.427C70.2197 208.731 80.8001 204.9 85.9266 197.219Z" fill="url(#paint3_linear)"/>
<path d="M79.2546 187.659C82.2011 188.051 85.42 186.017 90.7435 182.991C83.092 184.967 79.7377 185.567 76.6163 185.088C73.2172 184.517 68.7544 186.31 66.4047 189.476C63.7612 193.038 64.0578 194.528 64.0429 196.622C65.2253 201.232 66.6574 202.482 69.9393 203.454C65.1535 197.384 65.2376 194.734 68.1294 190.756C70.8601 187.059 73.7525 187.085 79.2546 187.659Z" fill="#CFF24E"/>
<path d="M97.7237 204.442C107.132 194.041 108.706 192.532 106.215 187.579C104.164 183.501 96.0812 188.113 87.4729 194.009C81.1604 195.551 77.8526 197.004 75.553 202.453C73.0537 207.983 74.1895 211.063 80.3053 215.682C86.4212 220.301 95.2655 213.344 97.7237 204.442Z" fill="url(#paint4_linear)"/>
<path d="M88.3893 197.459C91.3098 196.906 93.7283 193.965 97.8339 189.422C91.1883 193.698 88.1915 195.32 85.0774 195.844C81.6709 196.369 77.9959 199.472 76.758 203.215C75.3653 207.426 76.1144 208.748 76.7573 210.741C79.326 214.747 81.0779 215.485 84.499 215.378C78.0507 211.116 77.2991 208.573 78.7972 203.889C80.2304 199.522 82.9847 198.639 88.3893 197.459Z" fill="#CFF24E"/>
<path d="M150.483 151.336C148.335 155.212 146.558 156.842 141.524 157.971C150.015 162.443 151.5 166.497 151.146 175.888C154.209 171.252 156.859 168.704 164.418 164.939C153.444 162.491 150.245 159.593 150.483 151.336Z" fill="url(#paint5_linear)"/>
<path d="M106.023 193.141L98.0601 203.427C109.673 204.09 112.801 204.724 136.216 209.731C138.271 208.856 139.218 207.8 139.202 206.744C137.665 206.422 136.571 205.969 134.557 205.086C124.631 197.94 118.32 195.44 106.023 193.141Z" fill="#A1D032"/>
<path d="M178.976 228.397C179.946 213.343 180.271 211.026 174.568 208.289C169.871 206.035 165.983 215.197 162.536 225.812C158.042 231.169 156.143 234.538 157.961 240.754C159.658 247.166 162.84 249.131 171.514 249.273C180.187 249.415 183.093 237.725 178.976 228.397Z" fill="url(#paint6_linear)"/>
<path d="M196.698 232.341C196.403 217.885 196.527 215.629 190.841 214.062C186.158 212.772 183.178 222.164 180.74 232.855C176.87 238.748 175.325 242.287 177.572 247.855C179.719 253.632 182.927 254.921 191.247 253.49C199.568 252.06 201.4 240.446 196.698 232.341Z" fill="url(#paint7_linear)"/>
<path d="M183.118 235.372C184.78 232.908 184.392 229.12 184.052 223.006C182.415 230.737 181.459 234.008 179.641 236.59C177.617 239.38 177.236 244.174 179.025 247.688C181.038 251.64 182.505 252.038 184.373 252.983C189.027 253.976 190.784 253.251 193.115 250.744C185.549 252.328 183.214 251.073 180.939 246.713C178.844 242.622 180.155 240.043 183.118 235.372Z" fill="#CFF24E"/>
<path d="M168.017 227.487C170.64 225.59 171.49 221.602 173.171 215.267C168.81 222.523 166.68 225.496 163.848 227.455C160.725 229.55 158.706 234.281 159.464 238.502C160.316 243.252 161.769 244.191 163.473 245.834C168.173 248.541 170.316 248.445 173.677 246.75C164.965 245.597 162.859 243.47 161.86 238.211C160.966 233.291 163.247 231.15 168.017 227.487Z" fill="#CFF24E"/>
<defs>
<filter id="filter0_d" x="0.82666" y="0.703369" width="190.248" height="180.462" filterUnits="userSpaceOnUse" color-interpolation-filters="sRGB">
<feFlood flood-opacity="0" result="BackgroundImageFix"/>
<feColorMatrix in="SourceAlpha" type="matrix" values="0 0 0 0 0 0 0 0 0 0 0 0 0 0 0 0 0 0 127 0"/>
<feOffset dy="4"/>
<feGaussianBlur stdDeviation="2"/>
<feColorMatrix type="matrix" values="0 0 0 0 0 0 0 0 0 0 0 0 0 0 0 0 0 0 0.25 0"/>
<feBlend mode="normal" in2="BackgroundImageFix" result="effect1_dropShadow"/>
<feBlend mode="normal" in="SourceGraphic" in2="effect1_dropShadow" result="shape"/>
</filter>
<linearGradient id="paint0_linear" x1="117.992" y1="76.4135" x2="146.767" y2="86.5947" gradientUnits="userSpaceOnUse">
<stop stop-color="#030B2C"/>
<stop offset="1" stop-color="#0026BE"/>
</linearGradient>
<linearGradient id="paint1_linear" x1="81.4151" y1="138.653" x2="75.882" y2="108.844" gradientUnits="userSpaceOnUse">
<stop stop-color="#0026BE"/>
<stop offset="1" stop-color="#030B2C"/>
</linearGradient>
<linearGradient id="paint2_linear" x1="201.879" y1="203.925" x2="248.711" y2="172.015" gradientUnits="userSpaceOnUse">
<stop stop-color="#BFED35"/>
<stop offset="1" stop-color="#98C530"/>
</linearGradient>
<linearGradient id="paint3_linear" x1="76.5154" y1="184.204" x2="81.9005" y2="200.548" gradientUnits="userSpaceOnUse">
<stop stop-color="#BBEB37"/>
<stop offset="1" stop-color="#B3E428"/>
</linearGradient>
<linearGradient id="paint4_linear" x1="84.7047" y1="195.037" x2="94.9452" y2="208.867" gradientUnits="userSpaceOnUse">
<stop stop-color="#BBEB37"/>
<stop offset="1" stop-color="#B3E428"/>
</linearGradient>
<linearGradient id="paint5_linear" x1="146.833" y1="155.317" x2="155.791" y2="168.257" gradientUnits="userSpaceOnUse">
<stop stop-color="#708D2A"/>
<stop offset="1" stop-color="#A1D032"/>
</linearGradient>
<linearGradient id="paint6_linear" x1="160.814" y1="228.467" x2="179.71" y2="233.792" gradientUnits="userSpaceOnUse">
<stop stop-color="#BBEB37"/>
<stop offset="1" stop-color="#B3E428"/>
</linearGradient>
<linearGradient id="paint7_linear" x1="179.306" y1="235.685" x2="197.502" y2="239.119" gradientUnits="userSpaceOnUse">
<stop stop-color="#BBEB37"/>
<stop offset="1" stop-color="#B3E428"/>
</linearGradient>
</defs>
</svg>
