<svg width="245" height="241" viewBox="0 0 245 241" fill="none" xmlns="http://www.w3.org/2000/svg">
<g filter="url(#filter0_d)">
<path d="M83.4049 57.2C95.5725 45.9946 116.358 44.7616 126.327 45.3142C136.296 45.8667 150.066 51.1566 154.937 58.1217C171.495 75.6151 176.298 102.124 177.788 104.848C179.278 107.571 180.883 108.763 180.883 108.763C198.748 121.115 176.837 140.342 171.407 145.035C167.671 158.676 156.553 188.249 143.644 199.408C133.768 207.944 133.073 206.539 124.597 204.983C113.66 202.975 88.8342 173.811 77.7885 159.481C77.1362 159.28 74.2887 158.093 68.1175 154.946C53.9423 146.797 55.1218 136.474 57.4834 132.331C59.1123 130.445 62.2959 125.191 61.9987 119.259C61.06 105.399 64.0821 91.2864 65.7105 85.9627C66.5388 81.0441 71.2373 68.4054 83.4049 57.2Z" fill="#A1D032"/>
<path d="M101.862 51.9154C107.398 47.7007 119.045 45.9875 136.706 49.7503C154.205 57.5055 163.008 68.9968 176.308 106.515C176.773 109.791 178.008 111.462 180.78 114.344C189.92 123.844 173.902 148.53 150.615 154.111C160.761 159.291 156.82 183.236 148.791 192.485C138.461 204.385 133.864 206.778 127.381 204.929C112.429 192.412 119.206 172.279 124.601 140.94C126.442 131.519 117.162 123.695 108.234 107.736C84.5086 65.3267 91.0962 60.852 101.862 51.9154Z" fill="#B8EA33"/>
<path d="M125.092 163.784C122.772 164.033 120.588 163.216 118.857 162.437C125.013 162.389 125.013 162.389 130.96 160.47C128.836 162.265 127.522 163.524 125.092 163.784Z" fill="#5C8815"/>
<path d="M150.775 118.926C162.852 108.685 171.679 106.64 179.438 114.604C185.567 121.694 181.931 131.751 169.908 142.72C161.092 150.764 136.711 156.723 133.334 152.152C130.626 149.019 133.237 133.798 150.775 118.926Z" fill="url(#paint0_linear)" stroke="black"/>
<path d="M79.6692 158.047C66.5607 153.354 59.7984 142.741 62.0311 134.663C65.0863 125.869 73.629 122.921 90.7009 128.767C101.97 132.626 118.783 147.701 116.729 155.145C116.087 157.473 98.6297 164.836 79.6692 158.047Z" fill="url(#paint1_linear)" stroke="black"/>
<path d="M136.01 182.254C137.859 182.193 139.34 180.464 141.605 178.816C142.258 178.251 142.975 178.75 142.159 179.456C139.778 181.496 137.705 182.645 137.469 182.95C133.907 187.572 132.125 187.01 128.592 187.547C124.063 188.156 122.701 187.577 121.31 185.729C120.79 185.111 119.064 184.868 116.719 184.382C116.082 183.978 116.07 183.771 116.794 183.478C119.808 184.628 121.308 184.752 123.712 184.213C128.722 182.405 131.332 182.392 136.01 182.254Z" fill="#6A9B25"/>
<path d="M68.532 121.244C65.7505 100.286 67.4028 87.8055 79.9351 63.3638C67.0685 81.4633 64.487 96.9923 64.7599 120.217C65.1955 122.057 63.6057 124.753 62.7537 128.24C70.7047 122.414 78.4805 123.233 93.4287 126.022C86.5119 121.88 82.0619 120.022 68.532 121.244Z" fill="#97C524"/>
<path d="M169.632 106.438C168.852 83.1478 163.475 73.6898 142.321 52.4978C158.463 62.4097 166.237 75.1608 172.567 102.783C172.599 104.815 174.948 107.176 176.742 110.563C162.569 106.416 156.343 112.91 146.983 120.293C153.041 114.077 155.339 108.91 169.632 106.438Z" fill="#D7FF54"/>
<path d="M66.185 130.304L67.7342 130.11C80.72 124.609 94.5373 130.98 107.769 141.003L108.946 141.703C98.553 132.66 79.0878 121.727 66.185 130.304Z" fill="#00F0FF" fill-opacity="0.39"/>
<path d="M69.7211 150.91L70.898 151.61C85.7552 161.669 101.074 160.91 114.899 156.498L115.365 156.379C103.135 160.437 81.5459 163.186 69.7211 150.91Z" fill="#48D7CE" fill-opacity="0.39"/>
<path d="M181.74 122.448L181.169 123.666C174.639 140.043 161.764 147.877 148.089 151.918L147.644 152.078C159.827 148.63 178.898 138.954 181.74 122.448Z" fill="#48D7CE" fill-opacity="0.39"/>
<path d="M173.021 111.81L171.522 112.193C157.55 111.823 147.113 122.705 138.54 136.745L139.073 135.142C146.035 123.538 158.637 109.058 173.021 111.81Z" fill="#00FFFF" fill-opacity="0.39"/>
<path d="M110.996 194.715C98.0237 178.918 93.1425 170.861 101.734 162.279C93.6014 162.407 88.955 162.157 80.383 160.658C95.9793 181.242 101.985 187.303 110.996 194.715Z" fill="#95C524"/>
</g>
<defs>
<filter id="filter0_d" x="20.8828" y="22.1447" width="203.18" height="204.828" filterUnits="userSpaceOnUse" color-interpolation-filters="sRGB">
<feFlood flood-opacity="0" result="BackgroundImageFix"/>
<feColorMatrix in="SourceAlpha" type="matrix" values="0 0 0 0 0 0 0 0 0 0 0 0 0 0 0 0 0 0 127 0"/>
<feOffset dy="4"/>
<feGaussianBlur stdDeviation="2"/>
<feColorMatrix type="matrix" values="0 0 0 0 0 0 0 0 0 0 0 0 0 0 0 0 0 0 0.25 0"/>
<feBlend mode="normal" in2="BackgroundImageFix" result="effect1_dropShadow"/>
<feBlend mode="normal" in="SourceGraphic" in2="effect1_dropShadow" result="shape"/>
</filter>
<linearGradient id="paint0_linear" x1="146.832" y1="122.33" x2="166.792" y2="145.422" gradientUnits="userSpaceOnUse">
<stop stop-color="#030B2C"/>
<stop offset="1" stop-color="#0026BE"/>
</linearGradient>
<linearGradient id="paint1_linear" x1="84.2385" y1="158.298" x2="94.1891" y2="129.659" gradientUnits="userSpaceOnUse">
<stop stop-color="#0026BE"/>
<stop offset="1" stop-color="#030B2C"/>
</linearGradient>
</defs>
</svg>
