<svg width="437" height="351" viewBox="0 0 437 351" fill="none" xmlns="http://www.w3.org/2000/svg">
<g filter="url(#filter0_i)">
<path d="M107.308 103.017C98.7941 81.6411 83.2689 -0.0326813 154.007 9.81106e-06C196.063 9.81106e-06 219.283 29.1023 241.988 48.9332C282.495 84.3136 301.094 116.409 336.677 116.409C359.381 116.409 362.026 88.507 382.086 87.0495C402.211 87.0495 420.412 103.017 431.107 127.741C444.03 157.616 432.337 173.723 427.753 200.111C423.592 224.062 437.978 240.288 434.719 262.436C431.913 281.512 427.626 291.713 414.595 308.923C397.726 331.2 369.466 334.291 340.031 328.367L318.639 321.671L296.685 313.172C296.685 313.172 233.51 287.252 196.063 288.191C158.615 289.129 138.762 293.01 104.986 304.673C104.986 304.673 85.1197 313.301 70.9293 317.55C56.7389 321.8 47.9667 319.223 39.9683 313.172C6.94352 288.191 55.2135 194.96 20.1017 194.96C5.91133 194.96 -12.9233 140.876 12.6195 127.741C34.6564 116.409 79.9595 176.674 104.986 168.691C124.853 162.353 115.823 124.393 107.308 103.017Z" fill="url(#paint0_linear)"/>
</g>
<path d="M279.89 249.21L302.213 265.805C328.489 295.432 335.844 311.362 332.785 326.251C321.266 322.576 312.843 320.331 306.906 317.292C272.584 304.575 256.301 298.694 240.216 294.731C241.781 294.021 243.738 289.953 243.156 288.163C241.428 278.386 243.272 273.523 250.748 267.506C259.696 250.361 266.696 248.901 279.89 249.21Z" fill="#A1D032"/>
<path d="M276.311 259.273C285.098 263.167 290.87 264.702 303.258 265.822C304.955 268.394 306.094 269.509 308.385 271.055C330.847 287.402 335.645 306.537 338.093 327.909L323.163 323.264C320.762 311.385 331.508 287.207 288.35 268.552C284.963 267.901 282.637 267.143 277.404 264.794C274.014 261.109 273.56 259.791 276.311 259.273Z" fill="#89BA23"/>
<path d="M305.559 251.643L281.22 249.455C274.33 252.08 274.981 257.343 274.981 257.343C275.197 260.632 280.871 262.513 301.819 265.463L324.211 266.502L294.374 294.951C292.584 296.611 287.211 294.251 285.95 291.97C284.684 289.485 279.356 288.031 277.006 288.806C265.334 292.655 263.119 294.889 261.475 298.913C266.437 298.065 268.649 298.704 271.283 302.383C272.653 305.268 272.412 306.867 271.222 309.703C270.695 311.113 268.71 313.954 263.552 320.985C262.06 327.8 266.146 330.546 269.055 331.422C275.729 333.432 277.709 331.331 280.39 326.025L281.234 313.246C282.593 306.155 290.297 308.422 288.385 315.776C288.385 315.776 284.61 323.847 283.047 326.965C281.484 330.083 281.591 335.628 288.202 337.737C294.812 339.847 299.068 335.616 299.754 331.729C299.754 331.729 298.453 320.99 299.215 315.707C301.358 310.501 301.706 307.459 300.9 301.848C308.546 298.37 312.877 295.599 320.746 287.991L351.401 259.832C352.691 257.551 352.819 256.631 350.5 256.53C347.5 257.418 344.905 257.659 329.417 255.037C322.005 253.109 316.838 252.348 305.559 251.643Z" fill="url(#paint1_linear)"/>
<path d="M281.22 249.455C277.147 248.872 279.479 249.483 268.238 249.91C256.391 247.136 253.602 243.788 254.657 235.01C251.964 239.496 249.907 241.288 244.992 242.833C253.248 246.748 255.259 250.414 255.123 259.036C254.912 260.447 254.164 261.909 249.34 268.233C244.356 272.02 243.208 275.063 242.258 281.1C241.963 283.241 242.375 285.766 243.062 289.874C243.166 291.767 241.735 291.097 239.156 289.868C235.343 286.81 232.53 285.052 224.565 281.723C222.245 280.661 219.224 279.923 210.37 278.307C210.589 275.44 210.349 274.062 207.931 272.855C206.139 272.034 204.558 272.57 201.681 273.626C202.636 270.025 202.375 268.546 199.458 267.563C196.711 266.493 192.707 267.28 187.991 268.783C184.781 270.364 183.403 270.655 181.38 270.573C175.388 270.324 173.266 272.062 170.898 274.207C168.53 276.352 168.108 280.792 169.346 284.442C170.583 288.092 171.399 288.202 175.185 289.422L179.498 289.09C179.544 292.746 182.529 298.513 185.114 299.657C187.698 300.801 192.191 300.989 196.124 297.128C198.677 294.762 199.23 293.082 200.224 290.09C200.547 289.054 201.613 287.651 208.759 280.261M281.22 249.455L305.559 251.643C316.838 252.348 322.005 253.109 329.417 255.037C344.905 257.659 347.5 257.418 350.5 256.53C352.819 256.631 352.691 257.551 351.401 259.832L320.746 287.991C312.877 295.599 308.546 298.37 300.9 301.848C301.706 307.459 301.358 310.501 299.215 315.707C298.453 320.99 299.754 331.729 299.754 331.729C299.068 335.616 294.812 339.847 288.202 337.737C281.591 335.628 281.484 330.083 283.047 326.965C284.61 323.847 288.385 315.776 288.385 315.776C290.297 308.422 282.593 306.155 281.234 313.246L280.39 326.025C277.709 331.331 275.729 333.432 269.055 331.422C266.146 330.546 262.06 327.8 263.552 320.985C268.71 313.954 270.695 311.113 271.222 309.703C272.412 306.867 272.653 305.268 271.283 302.383C268.649 298.704 266.437 298.065 261.475 298.913C263.119 294.889 265.334 292.655 277.006 288.806C279.356 288.031 284.684 289.485 285.95 291.97C287.211 294.251 292.584 296.611 294.374 294.951L324.211 266.502L301.819 265.463C280.871 262.513 275.197 260.632 274.981 257.343C274.981 257.343 274.33 252.08 281.22 249.455Z" stroke="#A1D032" stroke-width="2"/>
<path d="M189.927 282.219C202.123 275.294 204.091 274.355 203.279 268.871C202.611 264.355 193.49 266.199 183.466 269.097C176.989 268.58 173.392 268.922 169.499 273.375C165.391 277.842 165.504 281.122 169.862 287.427C174.22 293.731 184.8 289.9 189.927 282.219Z" fill="url(#paint2_linear)"/>
<path d="M183.255 272.659C186.201 273.051 189.42 271.017 194.744 267.991C187.092 269.967 183.738 270.567 180.616 270.088C177.217 269.517 172.754 271.31 170.405 274.476C167.761 278.038 168.058 279.528 168.043 281.622C169.225 286.232 170.657 287.482 173.939 288.454C169.154 282.384 169.238 279.734 172.129 275.756C174.86 272.059 177.753 272.085 183.255 272.659Z" fill="#CFF24E"/>
<path d="M201.724 289.442C211.132 279.041 212.706 277.532 210.215 272.579C208.164 268.501 200.081 273.113 191.473 279.009C185.16 280.551 181.853 282.004 179.553 287.453C177.054 292.983 178.19 296.063 184.305 300.682C190.421 305.301 199.266 298.344 201.724 289.442Z" fill="url(#paint3_linear)"/>
<path d="M192.389 282.459C195.31 281.906 197.728 278.965 201.834 274.422C195.188 278.698 192.192 280.32 189.077 280.844C185.671 281.369 181.996 284.472 180.758 288.215C179.365 292.426 180.114 293.748 180.757 295.741C183.326 299.747 185.078 300.485 188.499 300.378C182.051 296.116 181.299 293.573 182.797 288.889C184.23 284.522 186.985 283.639 192.389 282.459Z" fill="#CFF24E"/>
<path d="M254.483 236.336C252.335 240.212 250.558 241.842 245.524 242.971C254.015 247.443 255.5 251.497 255.146 260.888C258.209 256.252 260.859 253.704 268.418 249.939C257.444 247.491 254.245 244.593 254.483 236.336Z" fill="url(#paint4_linear)"/>
<path d="M210.023 278.141L202.06 288.427C213.673 289.09 216.801 289.724 240.216 294.731C242.271 293.856 243.218 292.8 243.202 291.744C241.665 291.422 240.571 290.969 238.557 290.086C228.631 282.94 222.32 280.44 210.023 278.141Z" fill="#A1D032"/>
<path d="M282.976 313.397C283.946 298.343 284.271 296.026 278.568 293.289C273.871 291.035 269.983 300.197 266.536 310.812C262.042 316.169 260.143 319.538 261.961 325.754C263.658 332.166 266.84 334.131 275.514 334.273C284.187 334.415 287.093 322.725 282.976 313.397Z" fill="url(#paint5_linear)"/>
<path d="M300.698 317.341C300.403 302.885 300.527 300.629 294.841 299.062C290.158 297.772 287.178 307.164 284.74 317.855C280.87 323.748 279.325 327.287 281.572 332.855C283.719 338.632 286.927 339.921 295.247 338.49C303.568 337.06 305.4 325.446 300.698 317.341Z" fill="url(#paint6_linear)"/>
<path d="M287.118 320.372C288.78 317.908 288.392 314.12 288.052 308.006C286.415 315.737 285.459 319.008 283.641 321.59C281.617 324.38 281.236 329.174 283.025 332.688C285.038 336.64 286.505 337.038 288.373 337.983C293.027 338.976 294.784 338.251 297.115 335.744C289.549 337.328 287.214 336.073 284.939 331.713C282.844 327.622 284.155 325.043 287.118 320.372Z" fill="#CFF24E"/>
<path d="M272.017 312.487C274.64 310.59 275.49 306.602 277.171 300.267C272.81 307.523 270.68 310.496 267.848 312.455C264.725 314.55 262.706 319.281 263.464 323.502C264.316 328.252 265.769 329.191 267.473 330.834C272.173 333.541 274.316 333.445 277.677 331.75C268.965 330.597 266.859 328.47 265.86 323.211C264.966 318.291 267.247 316.15 272.017 312.487Z" fill="#CFF24E"/>
<defs>
<filter id="filter0_i" x="0" y="0" width="437" height="335" filterUnits="userSpaceOnUse" color-interpolation-filters="sRGB">
<feFlood flood-opacity="0" result="BackgroundImageFix"/>
<feBlend mode="normal" in="SourceGraphic" in2="BackgroundImageFix" result="shape"/>
<feColorMatrix in="SourceAlpha" type="matrix" values="0 0 0 0 0 0 0 0 0 0 0 0 0 0 0 0 0 0 127 0" result="hardAlpha"/>
<feOffset dy="4"/>
<feGaussianBlur stdDeviation="2"/>
<feComposite in2="hardAlpha" operator="arithmetic" k2="-1" k3="1"/>
<feColorMatrix type="matrix" values="0 0 0 0 0 0 0 0 0 0 0 0 0 0 0 0 0 0 0.25 0"/>
<feBlend mode="normal" in2="shape" result="effect1_innerShadow"/>
</filter>
<linearGradient id="paint0_linear" x1="217.36" y1="0" x2="217.36" y2="329.041" gradientUnits="userSpaceOnUse">
<stop stop-color="#162A43"/>
<stop offset="1" stop-color="#642459"/>
</linearGradient>
<linearGradient id="paint1_linear" x1="305.879" y1="288.925" x2="352.711" y2="257.015" gradientUnits="userSpaceOnUse">
<stop stop-color="#BFED35"/>
<stop offset="1" stop-color="#98C530"/>
</linearGradient>
<linearGradient id="paint2_linear" x1="180.515" y1="269.204" x2="185.901" y2="285.548" gradientUnits="userSpaceOnUse">
<stop stop-color="#BBEB37"/>
<stop offset="1" stop-color="#B3E428"/>
</linearGradient>
<linearGradient id="paint3_linear" x1="188.705" y1="280.037" x2="198.945" y2="293.867" gradientUnits="userSpaceOnUse">
<stop stop-color="#BBEB37"/>
<stop offset="1" stop-color="#B3E428"/>
</linearGradient>
<linearGradient id="paint4_linear" x1="250.833" y1="240.317" x2="259.791" y2="253.257" gradientUnits="userSpaceOnUse">
<stop stop-color="#708D2A"/>
<stop offset="1" stop-color="#A1D032"/>
</linearGradient>
<linearGradient id="paint5_linear" x1="264.814" y1="313.467" x2="283.71" y2="318.792" gradientUnits="userSpaceOnUse">
<stop stop-color="#BBEB37"/>
<stop offset="1" stop-color="#B3E428"/>
</linearGradient>
<linearGradient id="paint6_linear" x1="283.306" y1="320.685" x2="301.502" y2="324.119" gradientUnits="userSpaceOnUse">
<stop stop-color="#BBEB37"/>
<stop offset="1" stop-color="#B3E428"/>
</linearGradient>
</defs>
</svg>
