<svg width="68" height="51" viewBox="0 0 68 51" fill="none" xmlns="http://www.w3.org/2000/svg">
<g filter="url(#filter0_d)">
<path d="M6.25382 39.1704C6.08758 38.956 6.12307 38.648 6.33374 38.477C6.53761 38.3116 6.83481 38.3323 7.01372 38.5245L9.79868 41.5162C10.0507 41.787 10.0389 42.2129 9.77738 42.4744C9.51378 42.738 9.08209 42.7423 8.81851 42.4787L6.25382 39.1704Z" fill="white"/>
<rect x="11.4294" y="38.1831" width="0.954578" height="4.77289" rx="0.477289" transform="rotate(33.1644 11.4294 38.1831)" fill="white"/>
<rect x="23.2255" y="15.9722" width="0.954578" height="4.77289" rx="0.477289" transform="rotate(98.4203 23.2255 15.9722)" fill="white"/>
<rect x="23.832" y="13.1208" width="0.954578" height="4.77289" rx="0.477289" transform="rotate(123.302 23.832 13.1208)" fill="white"/>
<path d="M23.0785 20.246C10.7775 25.762 7.89385 30.5389 9.24101 41.7528" stroke="white"/>
<path d="M31.2558 20.1432C31.3766 20.594 31.5317 21.0646 31.721 21.5549C31.4374 21.6503 31.2505 21.71 31.1603 21.7342C30.6555 21.8694 30.2674 21.8816 29.9961 21.7707C29.7224 21.6508 29.5397 21.4196 29.4479 21.077C29.3561 20.7344 29.2623 20.0058 29.1666 18.8913C29.0775 17.7653 28.9592 16.9274 28.8119 16.3774C28.6621 15.8185 28.4069 15.5873 28.0463 15.684C27.848 15.7371 27.6642 15.9168 27.495 16.223C27.3234 16.5202 27.1895 16.9039 27.0933 17.3742C26.9947 17.8355 26.959 18.4055 26.9862 19.0842C27.0225 19.7605 27.1204 20.3962 27.2798 20.9912C27.4368 21.5772 27.61 22.1154 27.7994 22.6057C27.5157 22.7011 27.3288 22.7608 27.2387 22.785C26.7338 22.9202 26.3457 22.9324 26.0745 22.8215C25.8008 22.7016 25.6084 22.4343 25.4972 22.0196C25.4707 21.9204 25.3808 21.2246 25.2278 19.9322C25.0838 18.6374 24.9151 17.6293 24.7219 16.9081C24.5262 16.1779 24.2708 15.5313 23.9557 14.9683C24.6784 14.9969 25.2224 15.17 25.5877 15.4876C25.953 15.8052 26.2118 16.248 26.364 16.816C26.4413 17.1044 26.5075 17.478 26.5628 17.9367C26.6278 16.953 26.851 16.0912 27.2325 15.3513C27.623 14.6089 28.0706 14.1701 28.5755 14.0348C29.0894 13.8971 29.5097 13.9874 29.8366 14.3056C30.1724 14.6215 30.4358 15.1355 30.6266 15.8477C30.7929 15.0978 31.0425 14.4608 31.3755 13.9368C31.7086 13.4127 32.0599 13.1012 32.4295 13.0021C32.9795 12.8548 33.4118 12.9177 33.7266 13.1908C34.048 13.4526 34.2847 13.8674 34.4369 14.4354C34.5867 14.9944 34.7079 15.8074 34.8006 16.8744C34.9022 17.939 35.0159 18.7057 35.1415 19.1745C35.2647 19.6343 35.4139 19.9567 35.5891 20.1416C35.7618 20.3176 36.0085 20.4448 36.329 20.5231C36.2142 20.5636 36.0486 20.6127 35.8323 20.6707C35.075 20.8736 34.5027 20.9014 34.1153 20.7539C33.737 20.6041 33.4693 20.2362 33.3123 19.6502C33.2229 19.3166 33.1391 18.6434 33.061 17.6304C32.9804 16.6084 32.8761 15.8585 32.748 15.3807C32.5886 14.7857 32.3286 14.5365 31.968 14.6332C31.6975 14.7056 31.4577 14.9825 31.2484 15.4637C31.0458 15.9335 30.9335 16.5965 30.9117 17.4526C30.8875 18.2997 31.0022 19.1966 31.2558 20.1432ZM39.9919 15.7733C39.5592 15.8892 39.1222 15.9532 38.6809 15.9651C38.696 16.0577 38.729 16.1986 38.7797 16.3879C38.9802 17.1362 39.2709 17.6622 39.6518 17.966C40.0328 18.2697 40.4171 18.3697 40.8047 18.2658C41.1924 18.1619 41.5306 17.9457 41.8194 17.6171C42.1082 17.2885 42.3277 16.8818 42.4781 16.397C42.8219 16.3822 43.0289 16.5055 43.0989 16.767C42.6317 18.1966 41.7715 19.0793 40.5184 19.4151C39.7611 19.618 39.0212 19.5071 38.2986 19.0823C37.5736 18.6485 37.0723 17.9132 36.7945 16.8764C36.5867 16.1011 36.5386 15.3265 36.6501 14.5526C36.7592 13.7697 37.0743 13.0524 37.5953 12.4006C38.114 11.7399 38.7655 11.3044 39.5498 11.0942C40.3432 10.8817 40.973 10.9062 41.4392 11.1677C41.9055 11.4293 42.2171 11.8531 42.3741 12.4391C42.6012 13.2865 42.4728 13.9973 41.9889 14.5714C41.514 15.1432 40.8483 15.5438 39.9919 15.7733ZM39.5851 11.9834C39.1254 12.1066 38.8138 12.4945 38.6504 13.147C38.4871 13.7995 38.4645 14.5447 38.5828 15.3827L38.7856 15.3283C39.57 15.1181 40.0926 14.7607 40.3535 14.256C40.6234 13.7488 40.6823 13.2113 40.5301 12.6433C40.4673 12.4089 40.3511 12.2275 40.1814 12.099C40.0183 11.9591 39.8195 11.9206 39.5851 11.9834ZM48.4827 8.70069C49.0146 8.55817 49.4379 8.62349 49.7527 8.89667C50.074 9.15841 50.3108 9.57327 50.463 10.1412C50.6128 10.7002 50.734 11.5132 50.8266 12.5802C50.9283 13.6448 51.042 14.4116 51.1676 14.8804C51.2908 15.3401 51.44 15.6625 51.6151 15.8475C51.7879 16.0234 52.0345 16.1506 52.3551 16.229C52.2403 16.2694 52.0747 16.3186 51.8584 16.3765C51.1011 16.5795 50.5288 16.6072 50.1414 16.4598C49.7631 16.3099 49.4954 15.942 49.3384 15.356C49.249 15.0224 49.1652 14.3492 49.087 13.3362C49.0065 12.3143 48.9021 11.5644 48.7741 11.0866C48.6147 10.4915 48.3547 10.2424 47.994 10.339C47.7867 10.3945 47.5849 10.5791 47.3887 10.8925C47.1925 11.206 47.0294 11.6072 46.8995 12.0961C46.7672 12.5761 46.7081 13.1668 46.7222 13.8684C46.7363 14.57 46.8315 15.2499 47.0078 15.908C47.1817 16.5571 47.338 17.0322 47.4767 17.3332C47.193 17.4285 47.0061 17.4883 46.9159 17.5124C46.4021 17.6501 46.0083 17.659 45.7346 17.5391C45.4609 17.4192 45.2685 17.1519 45.1574 16.7372C45.1091 16.5569 45.0177 15.8373 44.8833 14.5786C44.749 13.3198 44.5864 12.3343 44.3955 11.6221C44.2023 10.9008 43.9481 10.2588 43.633 9.69579C44.3467 9.7268 44.8862 9.90111 45.2515 10.2187C45.6144 10.5273 45.8623 10.9295 45.9951 11.4254C46.1256 11.9122 46.2237 12.4946 46.2894 13.1727C46.3163 12.0833 46.5557 11.1012 47.0073 10.2265C47.459 9.35183 47.9508 8.84321 48.4827 8.70069ZM56.204 6.63178C56.4696 6.54128 56.6565 6.48153 56.7647 6.45254C57.2335 6.32693 57.6125 6.31716 57.9018 6.42323C58.1912 6.5293 58.3974 6.81222 58.5206 7.272C58.5593 7.41625 58.6439 8.07477 58.7746 9.24759C58.9028 10.4114 59.0745 11.3945 59.2894 12.1968C59.5044 12.9992 59.7797 13.6839 60.1153 14.2511C59.3811 14.2159 58.8302 14.035 58.4625 13.7084C58.0948 13.3817 57.8324 12.9254 57.6754 12.3394C57.615 12.1141 57.5281 11.5914 57.4147 10.7715C57.4106 11.8741 57.2142 12.8543 56.8257 13.7121C56.4437 14.5585 56.0003 15.0493 55.4955 15.1846C54.4587 15.4624 53.7398 14.853 53.3388 13.3565C53.206 12.8606 53.0933 12.1516 53.0008 11.2295C52.9149 10.2959 52.8104 9.59922 52.6872 9.13944C52.564 8.67966 52.3765 8.23228 52.1246 7.7973C52.8729 7.5968 53.4404 7.55103 53.8271 7.65999C54.2204 7.75752 54.4944 8.09477 54.649 8.67175C54.7311 8.97827 54.7995 9.61217 54.8542 10.5734C54.9088 11.5347 54.9977 12.2452 55.1209 12.705C55.2997 13.3722 55.5694 13.6574 55.93 13.5608C56.1103 13.5125 56.285 13.3352 56.4542 13.029C56.621 12.7138 56.7582 12.3243 56.8659 11.8606C56.9711 11.388 57.0137 10.8258 56.9937 10.1741C56.9803 9.51096 56.889 8.86386 56.7199 8.23279C56.5484 7.5927 56.3764 7.05903 56.204 6.63178Z" fill="white"/>
<rect x="59.6372" width="0.954578" height="4.77289" rx="0.477289" transform="rotate(40.3453 59.6372 0)" fill="white"/>
<rect x="62.6877" y="2.86377" width="0.954578" height="4.77289" rx="0.477289" transform="rotate(62.4386 62.6877 2.86377)" fill="white"/>
</g>
<defs>
<filter id="filter0_d" x="0.417114" y="0" width="66.7124" height="50.9481" filterUnits="userSpaceOnUse" color-interpolation-filters="sRGB">
<feFlood flood-opacity="0" result="BackgroundImageFix"/>
<feColorMatrix in="SourceAlpha" type="matrix" values="0 0 0 0 0 0 0 0 0 0 0 0 0 0 0 0 0 0 127 0"/>
<feOffset dy="4"/>
<feGaussianBlur stdDeviation="2"/>
<feColorMatrix type="matrix" values="0 0 0 0 0 0 0 0 0 0 0 0 0 0 0 0 0 0 0.25 0"/>
<feBlend mode="normal" in2="BackgroundImageFix" result="effect1_dropShadow"/>
<feBlend mode="normal" in="SourceGraphic" in2="effect1_dropShadow" result="shape"/>
</filter>
</defs>
</svg>
