<svg width="77" height="43" viewBox="0 0 77 43" fill="none" xmlns="http://www.w3.org/2000/svg">
<g filter="url(#filter0_d)">
<path d="M70.7783 5.70286C70.8352 5.96576 70.6716 6.22596 70.4101 6.28873C70.157 6.34947 69.9001 6.20375 69.8223 5.95534L68.6121 2.08839C68.5026 1.73845 68.6954 1.36264 69.0412 1.24068C69.3897 1.11775 69.7776 1.29862 69.9005 1.64713L70.7783 5.70286Z" fill="white"/>
<rect x="65.7277" y="4.37109" width="0.946296" height="4.73148" rx="0.473148" transform="rotate(-121.264 65.7277 4.37109)" fill="white"/>
<rect width="1.05384" height="5.26922" rx="0.526921" transform="matrix(-0.870597 -0.491997 -0.491997 0.870597 10.1456 27.5184)" fill="white"/>
<rect width="1.05384" height="5.26922" rx="0.526921" transform="matrix(-0.996792 -0.0800324 -0.0800324 0.996792 13.0411 28.9233)" fill="white"/>
<rect x="8.86121" y="17.9722" width="0.954578" height="4.77289" rx="0.477289" transform="rotate(98.4203 8.86121 17.9722)" fill="white"/>
<rect x="9.46777" y="15.1208" width="0.954578" height="4.77289" rx="0.477289" transform="rotate(123.302 9.46777 15.1208)" fill="white"/>
<path d="M47.6357 15.4262C60.9957 15.7571 65.6183 12.7195 69.2121 2.11538" stroke="white"/>
<path d="M16.8916 22.1432C17.0123 22.594 17.1674 23.0646 17.3568 23.5549C17.0731 23.6503 16.8862 23.71 16.7961 23.7342C16.2912 23.8694 15.9031 23.8816 15.6319 23.7707C15.3582 23.6508 15.1754 23.4196 15.0836 23.077C14.9918 22.7344 14.8981 22.0058 14.8023 20.8913C14.7132 19.7653 14.595 18.9274 14.4476 18.3774C14.2979 17.8185 14.0427 17.5873 13.682 17.684C13.4837 17.7371 13.3 17.9168 13.1308 18.223C12.9592 18.5202 12.8253 18.9039 12.729 19.3742C12.6304 19.8355 12.5947 20.4055 12.622 21.0842C12.6583 21.7605 12.7561 22.3962 12.9155 22.9912C13.0726 23.5772 13.2458 24.1154 13.4351 24.6057C13.1515 24.7011 12.9646 24.7608 12.8744 24.785C12.3695 24.9202 11.9815 24.9324 11.7102 24.8215C11.4365 24.7016 11.2441 24.4343 11.133 24.0196C11.1064 23.9204 11.0166 23.2246 10.8635 21.9322C10.7195 20.6374 10.5509 19.6293 10.3576 18.9081C10.1619 18.1779 9.90655 17.5313 9.59144 16.9683C10.3141 16.9969 10.8581 17.17 11.2235 17.4876C11.5888 17.8052 11.8475 18.248 11.9997 18.816C12.077 19.1044 12.1433 19.478 12.1985 19.9367C12.2635 18.953 12.4867 18.0912 12.8682 17.3513C13.2587 16.6089 13.7064 16.1701 14.2112 16.0348C14.7251 15.8971 15.1455 15.9874 15.4723 16.3056C15.8082 16.6215 16.0715 17.1355 16.2624 17.8477C16.4286 17.0978 16.6782 16.4608 17.0113 15.9368C17.3443 15.4127 17.6957 15.1012 18.0653 15.0021C18.6152 14.8548 19.0476 14.9177 19.3623 15.1908C19.6837 15.4526 19.9205 15.8674 20.0727 16.4354C20.2224 16.9944 20.3436 17.8074 20.4363 18.8744C20.538 19.939 20.6516 20.7057 20.7772 21.1745C20.9004 21.6343 21.0496 21.9567 21.2248 22.1416C21.3976 22.3176 21.6442 22.4448 21.9647 22.5231C21.85 22.5636 21.6844 22.6127 21.468 22.6707C20.7107 22.8736 20.1384 22.9014 19.7511 22.7539C19.3727 22.6041 19.105 22.2362 18.948 21.6502C18.8586 21.3166 18.7749 20.6434 18.6967 19.6304C18.6161 18.6084 18.5118 17.8585 18.3838 17.3807C18.2243 16.7857 17.9643 16.5365 17.6037 16.6332C17.3332 16.7056 17.0934 16.9825 16.8841 17.4637C16.6815 17.9335 16.5693 18.5965 16.5474 19.4526C16.5232 20.2997 16.6379 21.1966 16.8916 22.1432ZM25.6276 17.7733C25.1949 17.8892 24.7579 17.9532 24.3166 17.9651C24.3318 18.0577 24.3647 18.1986 24.4154 18.3879C24.6159 19.1362 24.9066 19.6622 25.2876 19.966C25.6685 20.2697 26.0528 20.3697 26.4405 20.2658C26.8281 20.1619 27.1663 19.9457 27.4551 19.6171C27.7439 19.2885 27.9635 18.8818 28.1138 18.397C28.4577 18.3822 28.6646 18.5055 28.7347 18.767C28.2675 20.1966 27.4073 21.0793 26.1541 21.4151C25.3969 21.618 24.6569 21.5071 23.9344 21.0823C23.2094 20.6485 22.708 19.9132 22.4302 18.8764C22.2225 18.1011 22.1743 17.3265 22.2858 16.5526C22.3949 15.7697 22.71 15.0524 23.2311 14.4006C23.7497 13.7399 24.4012 13.3044 25.1856 13.0942C25.9789 12.8817 26.6087 12.9062 27.075 13.1677C27.5412 13.4293 27.8528 13.8531 28.0099 14.4391C28.2369 15.2865 28.1085 15.9973 27.6246 16.5714C27.1498 17.1432 26.4841 17.5438 25.6276 17.7733ZM25.2209 13.9834C24.7611 14.1066 24.4495 14.4945 24.2862 15.147C24.1228 15.7995 24.1003 16.5447 24.2185 17.3827L24.4214 17.3283C25.2057 17.1181 25.7283 16.7607 25.9893 16.256C26.2592 15.7488 26.3181 15.2113 26.1659 14.6433C26.1031 14.4089 25.9868 14.2275 25.8171 14.099C25.654 13.9591 25.4553 13.9206 25.2209 13.9834ZM34.1184 10.7007C34.6503 10.5582 35.0737 10.6235 35.3884 10.8967C35.7098 11.1584 35.9466 11.5733 36.0987 12.1412C36.2485 12.7002 36.3697 13.5132 36.4624 14.5802C36.5641 15.6448 36.6777 16.4116 36.8033 16.8804C36.9265 17.3401 37.0757 17.6625 37.2509 17.8475C37.4236 18.0234 37.6703 18.1506 37.9908 18.229C37.876 18.2694 37.7105 18.3186 37.4941 18.3765C36.7368 18.5795 36.1645 18.6072 35.7771 18.4598C35.3988 18.3099 35.1311 17.942 34.9741 17.356C34.8847 17.0224 34.8009 16.3492 34.7228 15.3362C34.6422 14.3143 34.5379 13.5644 34.4099 13.0866C34.2504 12.4915 33.9904 12.2424 33.6298 12.339C33.4224 12.3945 33.2207 12.5791 33.0244 12.8925C32.8282 13.206 32.6652 13.6072 32.5353 14.0961C32.403 14.5761 32.3439 15.1668 32.3579 15.8684C32.372 16.57 32.4672 17.2499 32.6436 17.908C32.8175 18.5571 32.9738 19.0322 33.1124 19.3332C32.8287 19.4285 32.6418 19.4883 32.5517 19.5124C32.0378 19.6501 31.644 19.659 31.3703 19.5391C31.0966 19.4192 30.9042 19.1519 30.7931 18.7372C30.7448 18.5569 30.6535 17.8373 30.5191 16.5786C30.3847 15.3198 30.2221 14.3343 30.0313 13.6221C29.838 12.9008 29.5838 12.2588 29.2687 11.6958C29.9824 11.7268 30.5219 11.9011 30.8872 12.2187C31.2501 12.5273 31.498 12.9295 31.6309 13.4254C31.7613 13.9122 31.8594 14.4946 31.9251 15.1727C31.9521 14.0833 32.1914 13.1012 32.6431 12.2265C33.0947 11.3518 33.5865 10.8432 34.1184 10.7007ZM41.8397 8.63178C42.1053 8.54128 42.2922 8.48153 42.4004 8.45254C42.8692 8.32693 43.2483 8.31716 43.5376 8.42323C43.8269 8.5293 44.0332 8.81222 44.1564 9.272C44.195 9.41625 44.2797 10.0748 44.4103 11.2476C44.5386 12.4114 44.7102 13.3945 44.9252 14.1968C45.1402 14.9992 45.4155 15.6839 45.751 16.2511C45.0169 16.2159 44.466 16.035 44.0982 15.7084C43.7305 15.3817 43.4681 14.9254 43.3111 14.3394C43.2507 14.1141 43.1638 13.5914 43.0504 12.7715C43.0463 13.8741 42.85 14.8543 42.4614 15.7121C42.0795 16.5585 41.6361 17.0493 41.1312 17.1846C40.0944 17.4624 39.3756 16.853 38.9746 15.3565C38.8417 14.8606 38.729 14.1516 38.6365 13.2295C38.5507 12.2959 38.4461 11.5992 38.3229 11.1394C38.1997 10.6797 38.0122 10.2323 37.7604 9.7973C38.5086 9.5968 39.0761 9.55103 39.4628 9.65999C39.8562 9.75752 40.1301 10.0948 40.2847 10.6718C40.3668 10.9783 40.4352 11.6122 40.4899 12.5734C40.5446 13.5347 40.6335 14.2452 40.7567 14.705C40.9354 15.3722 41.2051 15.6574 41.5657 15.5608C41.746 15.5125 41.9208 15.3352 42.09 15.029C42.2567 14.7138 42.3939 14.3243 42.5016 13.8606C42.6068 13.388 42.6495 12.8258 42.6294 12.1741C42.616 11.511 42.5248 10.8639 42.3557 10.2328C42.1842 9.5927 42.0122 9.05903 41.8397 8.63178Z" fill="white"/>
<rect x="45.2729" y="2" width="0.954578" height="4.77289" rx="0.477289" transform="rotate(40.3453 45.2729 2)" fill="white"/>
<rect x="48.3235" y="4.86377" width="0.954578" height="4.77289" rx="0.477289" transform="rotate(62.4386 48.3235 4.86377)" fill="white"/>
</g>
<defs>
<filter id="filter0_d" x="0" y="0.605591" width="76.4868" height="41.5701" filterUnits="userSpaceOnUse" color-interpolation-filters="sRGB">
<feFlood flood-opacity="0" result="BackgroundImageFix"/>
<feColorMatrix in="SourceAlpha" type="matrix" values="0 0 0 0 0 0 0 0 0 0 0 0 0 0 0 0 0 0 127 0"/>
<feOffset dy="4"/>
<feGaussianBlur stdDeviation="2"/>
<feColorMatrix type="matrix" values="0 0 0 0 0 0 0 0 0 0 0 0 0 0 0 0 0 0 0.25 0"/>
<feBlend mode="normal" in2="BackgroundImageFix" result="effect1_dropShadow"/>
<feBlend mode="normal" in="SourceGraphic" in2="effect1_dropShadow" result="shape"/>
</filter>
</defs>
</svg>
