<svg width="147" height="83" viewBox="0 0 147 83" fill="none" xmlns="http://www.w3.org/2000/svg">
<g filter="url(#filter0_bf)">
<path d="M73.5 63L73.6699 67.9485L74.3885 63.0438L74.0079 67.9819L75.2672 63.1748L74.3403 68.0484L76.1266 63.3915L74.6635 68.1472L76.9573 63.6916L74.974 68.2773L77.75 64.0718L75.2683 68.4373L78.4962 64.5279L75.5432 68.6253L79.1876 65.0548L75.7958 68.8393L79.8167 65.647L76.0232 69.077L80.3766 66.2977L76.2229 69.3357L80.8612 67L76.3928 69.6127L81.2651 67.7461L76.5311 69.9049L81.584 68.5279L76.6361 70.2091L81.8143 69.3367L76.7067 70.522L81.9534 70.1638L76.7423 70.8401L82 71L76.7423 71.1599L81.9534 71.8362L76.7067 71.478L81.8143 72.6633L76.6361 71.7909L81.584 73.4721L76.5311 72.0951L81.2651 74.2539L76.3928 72.3873L80.8612 75L76.2229 72.6643L80.3766 75.7023L76.0232 72.923L79.8167 76.353L75.7958 73.1607L79.1876 76.9452L75.5432 73.3747L78.4962 77.4721L75.2683 73.5627L77.75 77.9282L74.974 73.7227L76.9573 78.3084L74.6635 73.8528L76.1266 78.6085L74.3403 73.9516L75.2672 78.8252L74.0079 74.0181L74.3885 78.9562L73.6699 74.0515L73.5 79L73.3301 74.0515L72.6115 78.9562L72.9921 74.0181L71.7328 78.8252L72.6597 73.9516L70.8734 78.6085L72.3365 73.8528L70.0427 78.3084L72.026 73.7227L69.25 77.9282L71.7317 73.5627L68.5038 77.4721L71.4568 73.3747L67.8124 76.9452L71.2042 73.1607L67.1833 76.353L70.9768 72.923L66.6234 75.7023L70.7771 72.6643L66.1388 75L70.6072 72.3873L65.7349 74.2539L70.4689 72.0951L65.416 73.4721L70.3639 71.7909L65.1857 72.6633L70.2933 71.478L65.0466 71.8362L70.2577 71.1599L65 71L70.2577 70.8401L65.0466 70.1638L70.2933 70.522L65.1857 69.3367L70.3639 70.2091L65.416 68.5279L70.4689 69.9049L65.7349 67.7461L70.6072 69.6127L66.1388 67L70.7771 69.3357L66.6234 66.2977L70.9768 69.077L67.1833 65.647L71.2042 68.8393L67.8124 65.0548L71.4568 68.6253L68.5038 64.5279L71.7317 68.4373L69.25 64.0718L72.026 68.2773L70.0427 63.6916L72.3365 68.1472L70.8734 63.3915L72.6597 68.0484L71.7328 63.1748L72.9921 67.9819L72.6115 63.0438L73.3301 67.9485L73.5 63Z" fill="#90FEF7"/>
</g>
<path d="M84.6238 64.4782C82.976 71.7739 80.5043 71.3899 74.3251 71.3899C67.7339 71.3899 63.2025 71.7739 62.7905 63.7103C62.7905 59.0448 67.9547 55.2627 74.3251 55.2627C80.6955 55.2627 84.6238 59.8128 84.6238 64.4782Z" fill="#4E75FF"/>
<path d="M84.4738 64.4616C83.6522 68.0906 82.6358 69.7541 81.1055 70.5364C80.3336 70.9309 79.4172 71.1088 78.299 71.1862C77.3994 71.2485 76.3801 71.2454 75.2104 71.2417C74.9245 71.2408 74.6295 71.2399 74.3251 71.2399C74.0332 71.2399 73.7457 71.2406 73.4627 71.2414C72.1441 71.2448 70.9229 71.248 69.81 71.1742C68.4588 71.0847 67.2826 70.8823 66.3026 70.4373C65.3272 69.9944 64.5415 69.3089 63.9721 68.2414C63.4008 67.1707 63.0431 65.708 62.9405 63.7065C62.9419 61.4346 64.1996 59.3652 66.2576 57.8579C68.3166 56.35 71.1684 55.4127 74.3251 55.4127C80.6097 55.4127 84.4644 59.8893 84.4738 64.4616Z" stroke="white" stroke-opacity="0.79" stroke-width="0.3"/>
<path d="M64.4382 65.1345C65.9927 71.7339 68.3245 71.3866 74.154 71.3866C80.3721 71.3866 84.647 71.7339 85.0356 64.4399C85.0356 60.2196 80.1638 56.7985 74.154 56.7985C68.1442 56.7985 64.4382 60.9143 64.4382 65.1345Z" fill="#4E75FF"/>
<path d="M64.5882 65.1172C65.3626 68.3959 66.3195 69.8951 67.759 70.6006C68.4863 70.9571 69.3503 71.118 70.4051 71.1881C71.2538 71.2444 72.2152 71.2415 73.3187 71.2382C73.5885 71.2374 73.8668 71.2366 74.154 71.2366C74.4293 71.2366 74.7006 71.2373 74.9675 71.2379C76.2115 71.241 77.3636 71.2439 78.4133 71.1772C79.6881 71.0962 80.7972 70.9132 81.721 70.511C82.6404 70.1106 83.3794 69.4918 83.9148 68.5295C84.4519 67.5641 84.7889 66.2443 84.8856 64.4359C84.8841 62.3895 83.7025 60.5218 81.7623 59.1593C79.8212 57.7963 77.1318 56.9485 74.154 56.9485C68.2246 56.9485 64.5984 60.9962 64.5882 65.1172Z" stroke="white" stroke-opacity="0.79" stroke-width="0.3"/>
<ellipse cx="73.501" cy="59.1024" rx="25.5408" ry="9.9835" fill="#62288B"/>
<path d="M98.8918 59.1024C98.8918 60.425 98.2067 61.7011 96.9329 62.8783C95.6589 64.0556 93.8073 65.1228 91.5065 66.0221C86.9059 67.8204 80.5401 68.9359 73.501 68.9359C66.462 68.9359 60.0961 67.8204 55.4955 66.0221C53.1948 65.1228 51.3431 64.0556 50.0691 62.8783C48.7953 61.7011 48.1102 60.425 48.1102 59.1024C48.1102 57.7798 48.7953 56.5037 50.0691 55.3265C51.3431 54.1492 53.1948 53.082 55.4955 52.1827C60.0961 50.3844 66.462 49.2689 73.501 49.2689C80.5401 49.2689 86.9059 50.3844 91.5065 52.1827C93.8073 53.082 95.6589 54.1492 96.9329 55.3265C98.2067 56.5037 98.8918 57.7798 98.8918 59.1024Z" stroke="white" stroke-opacity="0.79" stroke-width="0.3"/>
<ellipse cx="73.501" cy="59.1024" rx="25.5408" ry="9.9835" fill="#62288B"/>
<path d="M98.8918 59.1024C98.8918 60.425 98.2067 61.7011 96.9329 62.8783C95.6589 64.0556 93.8073 65.1228 91.5065 66.0221C86.9059 67.8204 80.5401 68.9359 73.501 68.9359C66.462 68.9359 60.0961 67.8204 55.4955 66.0221C53.1948 65.1228 51.3431 64.0556 50.0691 62.8783C48.7953 61.7011 48.1102 60.425 48.1102 59.1024C48.1102 57.7798 48.7953 56.5037 50.0691 55.3265C51.3431 54.1492 53.1948 53.082 55.4955 52.1827C60.0961 50.3844 66.462 49.2689 73.501 49.2689C80.5401 49.2689 86.9059 50.3844 91.5065 52.1827C93.8073 53.082 95.6589 54.1492 96.9329 55.3265C98.2067 56.5037 98.8918 57.7798 98.8918 59.1024Z" stroke="white" stroke-opacity="0.79" stroke-width="0.3"/>
<path d="M146.004 44.1272C146.004 53.6702 113.543 61.4063 73.501 61.4063C33.4587 61.4063 0.998047 53.6702 0.998047 44.1272C0.998047 34.5842 33.4587 23.3922 73.501 23.3922C113.543 23.3922 146.004 34.5842 146.004 44.1272Z" fill="url(#paint0_linear)"/>
<path d="M145.854 44.1272C145.854 46.4236 143.896 48.658 140.233 50.7223C136.581 52.7797 131.288 54.6374 124.734 56.1994C111.628 59.3229 93.514 61.2563 73.501 61.2563C53.488 61.2563 35.3745 59.3229 22.2684 56.1994C15.7142 54.6374 10.4207 52.7797 6.76932 50.7223C3.10578 48.658 1.14805 46.4236 1.14805 44.1272C1.14805 42.9784 1.63637 41.7917 2.58863 40.5895C3.54102 39.3871 4.95132 38.1773 6.77759 36.987C10.4301 34.6065 15.7242 32.3178 22.2773 30.3246C35.3817 26.3386 53.4925 23.5422 73.501 23.5422C93.5095 23.5422 111.62 26.3386 124.725 30.3246C131.278 32.3178 136.572 34.6065 140.224 36.987C142.051 38.1773 143.461 39.3871 144.413 40.5895C145.366 41.7917 145.854 42.9784 145.854 44.1272Z" stroke="white" stroke-opacity="0.79" stroke-width="0.3"/>
<ellipse cx="12.1207" cy="42.5912" rx="2.88364" ry="2.68786" fill="#48D7CE"/>
<path d="M14.8543 42.5912C14.8543 43.9831 13.6406 45.129 12.1207 45.129C10.6008 45.129 9.38706 43.9831 9.38706 42.5912C9.38706 41.1993 10.6008 40.0533 12.1207 40.0533C13.6406 40.0533 14.8543 41.1993 14.8543 42.5912Z" stroke="white" stroke-opacity="0.79" stroke-width="0.3"/>
<ellipse cx="133.234" cy="42.5912" rx="2.88364" ry="2.68786" fill="#48D7CE"/>
<path d="M135.967 42.5912C135.967 43.9831 134.754 45.129 133.234 45.129C131.714 45.129 130.5 43.9831 130.5 42.5912C130.5 41.1993 131.714 40.0533 133.234 40.0533C134.754 40.0533 135.967 41.1993 135.967 42.5912Z" stroke="white" stroke-opacity="0.79" stroke-width="0.3"/>
<ellipse cx="115.108" cy="42.5912" rx="2.88364" ry="2.68786" fill="#48D7CE"/>
<path d="M117.842 42.5912C117.842 43.9831 116.628 45.129 115.108 45.129C113.588 45.129 112.374 43.9831 112.374 42.5912C112.374 41.1993 113.588 40.0533 115.108 40.0533C116.628 40.0533 117.842 41.1993 117.842 42.5912Z" stroke="white" stroke-opacity="0.79" stroke-width="0.3"/>
<ellipse cx="96.9823" cy="42.5912" rx="2.88364" ry="2.68786" fill="#48D7CE"/>
<path d="M99.7159 42.5912C99.7159 43.9831 98.5021 45.129 96.9823 45.129C95.4624 45.129 94.2486 43.9831 94.2486 42.5912C94.2486 41.1993 95.4624 40.0533 96.9823 40.0533C98.5021 40.0533 99.7159 41.1993 99.7159 42.5912Z" stroke="white" stroke-opacity="0.79" stroke-width="0.3"/>
<ellipse cx="79.6805" cy="42.5912" rx="2.88364" ry="2.68786" fill="#48D7CE"/>
<path d="M82.4142 42.5912C82.4142 43.9831 81.2004 45.129 79.6805 45.129C78.1607 45.129 76.9469 43.9831 76.9469 42.5912C76.9469 41.1993 78.1607 40.0533 79.6805 40.0533C81.2004 40.0533 82.4142 41.1993 82.4142 42.5912Z" stroke="white" stroke-opacity="0.79" stroke-width="0.3"/>
<ellipse cx="64.0262" cy="42.5912" rx="2.88364" ry="2.68786" fill="#48D7CE"/>
<path d="M66.7599 42.5912C66.7599 43.9831 65.5461 45.129 64.0262 45.129C62.5064 45.129 61.2926 43.9831 61.2926 42.5912C61.2926 41.1993 62.5064 40.0533 64.0262 40.0533C65.5461 40.0533 66.7599 41.1993 66.7599 42.5912Z" stroke="white" stroke-opacity="0.79" stroke-width="0.3"/>
<ellipse cx="47.5482" cy="42.5912" rx="2.88364" ry="2.68786" fill="#48D7CE"/>
<path d="M50.2818 42.5912C50.2818 43.9831 49.068 45.129 47.5482 45.129C46.0283 45.129 44.8146 43.9831 44.8146 42.5912C44.8146 41.1993 46.0283 40.0533 47.5482 40.0533C49.068 40.0533 50.2818 41.1993 50.2818 42.5912Z" stroke="white" stroke-opacity="0.79" stroke-width="0.3"/>
<ellipse cx="30.2467" cy="42.5912" rx="2.88364" ry="2.68786" fill="#48D7CE"/>
<path d="M32.9803 42.5912C32.9803 43.9831 31.7665 45.129 30.2467 45.129C28.7268 45.129 27.513 43.9831 27.513 42.5912C27.513 41.1993 28.7268 40.0533 30.2467 40.0533C31.7665 40.0533 32.9803 41.1993 32.9803 42.5912Z" stroke="white" stroke-opacity="0.79" stroke-width="0.3"/>
<path d="M14.3575 19.8425L12.7185 20.3105L20.8049 35.5393L22.9514 37.3356L24.3142 34.4631L14.3575 19.8425Z" fill="#642763"/>
<path d="M24.1394 34.4718L14.2939 20.0144L12.9372 20.4018L20.928 35.4506L22.8943 37.0961L24.1394 34.4718Z" stroke="white" stroke-opacity="0.79" stroke-width="0.3"/>
<path d="M14.3575 19.8425L12.7185 20.3105L21.5955 33.3757L22.9514 37.3356L24.3142 34.4631L14.3575 19.8425Z" fill="#892982"/>
<path d="M14.2939 20.0144L12.9572 20.3961L21.7241 33.2993L21.7354 33.3159L21.7417 33.3345L22.973 36.9303L24.1394 34.4718L14.2939 20.0144Z" stroke="white" stroke-opacity="0.79" stroke-width="0.3"/>
<path d="M132.565 19.0946L134.254 19.5766L125.925 35.2614L123.714 37.1114L122.311 34.153L132.565 19.0946Z" fill="#642763"/>
<path d="M122.485 34.1616L132.629 19.2665L134.035 19.6679L125.802 35.1727L123.771 36.8719L122.485 34.1616Z" stroke="white" stroke-opacity="0.79" stroke-width="0.3"/>
<path d="M132.565 19.0946L134.254 19.5766L125.111 33.033L123.714 37.1114L122.311 34.153L132.565 19.0946Z" fill="#892982"/>
<path d="M132.629 19.2665L134.015 19.6622L124.982 32.9566L124.971 32.9731L124.964 32.9918L123.693 36.7061L122.485 34.1616L132.629 19.2665Z" stroke="white" stroke-opacity="0.79" stroke-width="0.3"/>
<path d="M77.5049 6.97217C75.2932 5.69408 72.0476 6.08587 70.525 6.43825C69.0023 6.79064 67.0337 7.92825 66.4888 9.06311C64.4525 12.0318 64.4991 15.975 64.35 16.4074C64.2009 16.8398 63.9885 17.0551 63.9885 17.0551C61.5977 19.3204 65.552 21.485 66.5299 22.0113C67.5123 23.8704 70.1079 27.8183 72.4326 29.0693C74.2111 30.0264 74.2766 29.8053 75.5389 29.3495C77.1678 28.7614 80.1335 23.8883 81.4128 21.5252C81.5075 21.4786 81.9118 21.2299 82.771 20.6084C84.7172 19.0485 84.2282 17.5965 83.7404 17.0655C83.4329 16.839 82.7852 16.1706 82.6547 15.3094C82.3876 13.2909 81.5014 11.3444 81.0918 10.6235C80.8177 9.93892 79.7165 8.25025 77.5049 6.97217Z" fill="#A1D032"/>
<path d="M75.0378 6.53815C74.0474 6.07994 72.1716 6.1659 69.5125 7.22971C66.995 8.87475 65.9493 10.8162 64.9559 16.7077C64.9782 17.202 64.8332 17.483 64.4825 17.9863C63.3262 19.6453 66.5554 22.8043 70.3682 22.9488C68.9284 24.0029 70.2429 27.403 71.7706 28.5279C73.7361 29.9752 74.5264 30.1932 75.4889 29.734C77.4687 27.464 75.8206 24.7055 74.063 20.2624C73.5004 18.933 74.7276 17.5159 75.6628 14.9152C78.1483 8.00378 76.9855 7.53787 75.0378 6.53815Z" fill="#B8EA33"/>
<path d="M74.4101 23.7427C74.8885 23.8167 75.2489 23.7283 75.5231 23.6384C74.3064 23.534 74.3064 23.534 72.9706 23.1515C73.5425 23.4551 73.9092 23.6653 74.4101 23.7427Z" fill="#5C8815"/>
<path d="M69.2926 17.6256C67.1896 16.5201 65.7892 16.503 64.803 17.9069C64.0441 19.1322 64.8521 20.4788 66.965 21.6918C68.5144 22.5814 72.3905 22.674 72.7921 21.9023C73.1274 21.361 72.3463 19.231 69.2926 17.6256Z" fill="url(#paint1_linear)" stroke="black"/>
<path d="M81.3136 21.442C83.2162 20.3957 83.9532 18.6662 83.3643 17.555C82.6258 16.3628 81.2067 16.1721 78.7209 17.496C77.0801 18.3699 74.9101 21.0272 75.4522 22.0512C75.6218 22.3714 78.5617 22.9553 81.3136 21.442Z" fill="url(#paint2_linear)" stroke="black"/>
<path d="M73.7483 26.8696C73.502 26.8881 73.2466 26.7067 72.8904 26.5454C72.7847 26.4885 72.7071 26.5567 72.8394 26.6278C73.2243 26.8332 73.5379 26.9388 73.5796 26.9712C74.2097 27.4619 74.4257 27.3716 74.9111 27.3854C75.5307 27.3941 75.6907 27.3076 75.8108 27.0725C75.8582 26.9931 76.0779 26.9409 76.371 26.8517C76.4413 26.7957 76.4358 26.7714 76.3299 26.7472C75.9713 26.9231 75.7773 26.9583 75.4411 26.9285C74.7167 26.7867 74.3713 26.8212 73.7483 26.8696Z" fill="#6A9B25"/>
<path d="M81.823 15.5961C81.7539 12.4926 81.2161 10.7527 78.7676 7.64893C81.1191 9.83017 81.8671 11.9779 82.3653 15.3252C82.3427 15.6039 82.6439 15.9394 82.8527 16.4128C81.524 15.8352 80.3759 16.2069 78.197 17.0963C79.139 16.2749 79.7638 15.8625 81.823 15.5961Z" fill="#97C524"/>
<path d="M65.7552 16.4481C65.1817 13.0436 65.7374 11.5204 68.4014 7.854C66.1818 9.74259 65.351 11.8108 65.1888 15.9989C65.2444 16.2949 64.9489 16.7031 64.7704 17.245C66.8552 16.2485 68.019 17.0184 69.6978 17.8305C68.5684 17.0961 68.0562 16.4096 65.7552 16.4481Z" fill="#D7FF54"/>
<path d="M82.5868 17.0372L82.3397 17.0522C80.152 16.6142 78.1891 17.9239 76.4264 19.7477L76.2639 19.8821C77.6135 18.2796 80.3204 16.1503 82.5868 17.0372Z" fill="#00F0FF" fill-opacity="0.39"/>
<path d="M82.6508 20.1287L82.4883 20.263C80.4733 22.1373 78.0637 22.4531 75.7777 22.1968L75.7016 22.1924C77.7284 22.4417 81.1745 22.2405 82.6508 20.1287Z" fill="#48D7CE" fill-opacity="0.39"/>
<path d="M64.3466 19.11L64.4719 19.2711C65.9781 21.468 68.218 22.2479 70.4696 22.4544L70.5437 22.4653C68.5423 22.3033 65.2819 21.4283 64.3466 19.11Z" fill="#48D7CE" fill-opacity="0.39"/>
<path d="M65.3876 17.3227L65.6326 17.3366C67.7987 16.8942 69.7497 18.1846 71.5045 19.9853L71.3737 19.7673C69.9427 18.2755 67.5468 16.5228 65.3876 17.3227Z" fill="#00FFFF" fill-opacity="0.39"/>
<path d="M77.6067 27.4202C79.1926 24.7117 79.7347 23.3844 78.1916 22.4018C79.4454 22.1663 80.1533 21.9846 81.4326 21.4982C79.5671 24.9866 78.8005 26.0581 77.6067 27.4202Z" fill="#95C524"/>
<path d="M101.513 24.5441C101.513 31.8397 98.2179 29.5359 72.2651 29.5359C49.196 29.5359 44.6646 31.4558 44.6646 24.5441C44.6646 16.4856 57.3906 0.737305 73.089 0.737305C88.7874 0.737305 101.513 16.4856 101.513 24.5441Z" fill="#49BFB8" fill-opacity="0.76"/>
<path d="M101.363 24.5441C101.363 26.3678 101.154 27.5387 100.481 28.3027C99.8078 29.0653 98.6389 29.4587 96.6092 29.6263C94.5852 29.7935 91.7496 29.734 87.7879 29.6319C87.5212 29.625 87.2495 29.618 86.9726 29.6108C83.1394 29.5111 78.3183 29.3859 72.2651 29.3859C67.444 29.3859 63.4319 29.4697 60.1029 29.5392C59.4483 29.5529 58.8201 29.566 58.2173 29.5779C54.5461 29.6499 51.8262 29.6735 49.8282 29.4825C47.8256 29.2911 46.5853 28.8864 45.8396 28.1343C45.0977 27.3861 44.8146 26.2621 44.8146 24.5441C44.8146 22.5647 45.5977 20.0951 47.0297 17.497C48.4602 14.9016 50.532 12.1894 53.0938 9.7269C58.2193 4.80017 65.2901 0.887305 73.089 0.887305C80.8879 0.887305 87.9587 4.80017 93.0842 9.7269C95.646 12.1894 97.7178 14.9016 99.1484 17.497C100.58 20.0951 101.363 22.5647 101.363 24.5441Z" stroke="white" stroke-opacity="0.79" stroke-width="0.3"/>
<rect x="43.0168" y="29.1519" width="60.1445" height="0.767961" rx="0.383981" fill="#48D7CE"/>
<rect x="43.1668" y="29.3019" width="59.8445" height="0.467961" rx="0.233981" stroke="white" stroke-opacity="0.79" stroke-width="0.3"/>
<ellipse cx="12.9447" cy="19.5524" rx="2.88364" ry="2.68786" fill="#48D7CE"/>
<path d="M15.6783 19.5524C15.6783 20.9442 14.4645 22.0902 12.9447 22.0902C11.4248 22.0902 10.211 20.9442 10.211 19.5524C10.211 18.1605 11.4248 17.0145 12.9447 17.0145C14.4645 17.0145 15.6783 18.1605 15.6783 19.5524Z" stroke="white" stroke-opacity="0.79" stroke-width="0.3"/>
<ellipse cx="133.234" cy="19.5524" rx="2.88364" ry="2.68786" fill="#48D7CE"/>
<path d="M135.967 19.5524C135.967 20.9442 134.754 22.0902 133.234 22.0902C131.714 22.0902 130.5 20.9442 130.5 19.5524C130.5 18.1605 131.714 17.0145 133.234 17.0145C134.754 17.0145 135.967 18.1605 135.967 19.5524Z" stroke="white" stroke-opacity="0.79" stroke-width="0.3"/>
<defs>
<filter id="filter0_bf" x="61" y="59" width="25" height="24" filterUnits="userSpaceOnUse" color-interpolation-filters="sRGB">
<feFlood flood-opacity="0" result="BackgroundImageFix"/>
<feGaussianBlur in="BackgroundImage" stdDeviation="2"/>
<feComposite in2="SourceAlpha" operator="in" result="effect1_backgroundBlur"/>
<feBlend mode="normal" in="SourceGraphic" in2="effect1_backgroundBlur" result="shape"/>
<feGaussianBlur stdDeviation="2" result="effect2_foregroundBlur"/>
</filter>
<linearGradient id="paint0_linear" x1="73.501" y1="23.3922" x2="73.501" y2="61.4063" gradientUnits="userSpaceOnUse">
<stop stop-color="#A6489F"/>
<stop offset="1" stop-color="#031615"/>
</linearGradient>
<linearGradient id="paint1_linear" x1="69.9807" y1="17.9953" x2="67.7605" y2="22.1211" gradientUnits="userSpaceOnUse">
<stop stop-color="#030B2C"/>
<stop offset="1" stop-color="#0026BE"/>
</linearGradient>
<linearGradient id="paint2_linear" x1="80.6091" y1="21.6055" x2="78.4486" y2="17.591" gradientUnits="userSpaceOnUse">
<stop stop-color="#0026BE"/>
<stop offset="1" stop-color="#030B2C"/>
</linearGradient>
</defs>
</svg>
